<svg width="228" height="318" viewBox="0 0 228 318" fill="none" xmlns="http://www.w3.org/2000/svg">
<g clip-path="url(#clip0_22_4666)">
<mask id="mask0_22_4666" style="mask-type:luminance" maskUnits="userSpaceOnUse" x="0" y="0" width="228" height="318">
<path d="M227.28 0H0V317.75H227.28V0Z" fill="white"/>
</mask>
<g mask="url(#mask0_22_4666)">
<path d="M176.45 0H40.4502C31.6136 0 24.4502 7.16344 24.4502 16V284C24.4502 292.837 31.6136 300 40.4502 300H176.45C185.287 300 192.45 292.837 192.45 284V16C192.45 7.16344 185.287 0 176.45 0Z" fill="#5352C3"/>
<g style="mix-blend-mode:luminosity" opacity="0.3">
<path fill-rule="evenodd" clip-rule="evenodd" d="M169.51 147.61C166.09 145.15 162.8 142.55 159.59 139.79C158.06 143.87 155.71 147.56 152.67 150.46C155.66 154.02 158.49 157.71 161.19 161.52C155.48 167.06 147.95 169.78 140.34 170.52C137.98 166.48 135.82 162.29 133.86 158.01C128.18 158.41 122.46 157.65 116.89 156.25C117.72 160.29 118.29 164.36 118.63 168.48C107.23 165.55 96.3102 160.32 86.2302 153.77C86.7402 150.18 87.5401 146.68 88.6702 143.26C82.3601 139.1 76.4202 134.27 70.9602 128.9C68.5902 131.31 66.0002 133.39 63.2202 135.22C54.3902 126.44 46.4702 116.41 40.4702 105.14C43.9002 103.99 47.4202 103.14 50.9702 102.56C47.9502 96.8701 45.4902 90.7701 43.9402 84.4301C39.8502 83.8601 35.7602 83.0201 31.7602 81.9301C29.9002 73.1301 29.7002 63.8201 32.2502 55.2101C36.1602 56.7701 40.0102 58.5701 43.7802 60.5301C44.9902 56.1001 47.0502 52.0001 49.8202 48.5401C46.6002 45.9801 43.4702 43.2101 40.4702 40.3601C45.4002 34.8601 51.7902 31.1601 58.6002 29.1301C61.0602 32.0001 65.3802 30.8801 67.5802 33.9701C71.8802 32.6201 74.3701 36.1801 78.8801 36.2501C77.5501 33.3101 76.4002 30.2701 75.4501 27.1401C83.5602 27.4701 91.6102 29.4101 99.2802 32.4601C99.8701 35.2401 100.29 38.0401 100.53 40.8501C105.52 42.8501 110.3 45.3701 114.88 48.3501C115.37 46.0901 116.09 43.8801 117.03 41.8001C124.83 46.9501 132.05 53.1601 138.59 60.1001C137.48 61.9201 150.11 77.7501 152.37 77.4101C157.73 85.4401 162.34 94.1301 165.77 103.28C163.05 103.24 160.3 102.96 157.65 102.44C159.48 107.59 160.82 112.9 161.5 118.36C164.75 119.83 167.88 121.51 170.99 123.34C172.1 131.4 172 139.84 169.58 147.55L169.51 147.6V147.61ZM132.68 110.66C132.39 112.4 131.84 114.09 131.02 115.64C125.62 125.81 112.42 123.53 104.03 119.57C102.19 118.7 100.38 117.67 98.6202 116.56C96.2902 115.08 94.0901 113.43 92.0201 111.57C90.2201 110 88.5102 108.26 86.9102 106.43C79.9002 98.4101 72.7702 85.4201 76.9602 74.2001C81.5802 61.9301 96.1802 63.1801 105.56 67.7001C107.4 68.5701 109.18 69.6401 110.9 70.7501C119.31 76.3401 126.51 84.8101 130.41 94.7001C132.36 99.6801 133.6 105.31 132.65 110.66H132.69H132.68Z" fill="#FFA32E"/>
<path fill-rule="evenodd" clip-rule="evenodd" d="M40.4102 105.13C40.4102 105.13 47.7402 120.43 63.1602 135.21L79.5102 119.3L56.7602 89.22L40.4502 105.09L40.4202 105.13H40.4102Z" fill="#FC744A"/>
<path fill-rule="evenodd" clip-rule="evenodd" d="M60.24 68.5601L43.89 84.4701C43.89 84.4701 36.57 83.8601 31.71 81.9701L48.06 66.0601C48.06 66.0601 53.19 67.7001 60.24 68.5601Z" fill="#FF811C"/>
<path fill-rule="evenodd" clip-rule="evenodd" d="M87.2199 113.05L70.8699 128.96C70.8699 128.96 66.4099 133.36 63.1299 135.28L79.4799 119.37C79.4799 119.37 83.8099 116.18 87.2199 113.05Z" fill="#FF811C"/>
<path fill-rule="evenodd" clip-rule="evenodd" d="M102.51 137.94L86.1602 153.85C86.1602 153.85 98.4501 163.26 118.56 168.56L134.91 152.65C134.91 152.65 116.75 147.55 102.51 137.94Z" fill="#FC744A"/>
<path fill-rule="evenodd" clip-rule="evenodd" d="M86.1802 153.8L102.53 137.89C102.53 137.89 103.18 131.8 104.97 127.39C104.97 127.39 94.1002 136.08 88.6202 143.3C88.6202 143.3 86.8202 149 86.1802 153.8Z" fill="#FF811C"/>
<path fill-rule="evenodd" clip-rule="evenodd" d="M133.85 158.02L150.2 142.11C150.2 142.11 153.81 149.73 156.68 154.62L140.33 170.53C140.33 170.53 136.02 163.37 133.85 158.02Z" fill="#FF811C"/>
<path fill-rule="evenodd" clip-rule="evenodd" d="M140.33 170.54C140.33 170.54 151.79 170.82 161.18 161.54L177.53 145.63L156.68 154.63L140.33 170.54Z" fill="#FC744A"/>
<path fill-rule="evenodd" clip-rule="evenodd" d="M185.82 131.74L169.5 147.61L161.61 134.23L175.7 120.48L185.84 131.69L185.81 131.73L185.82 131.74Z" fill="#FF811C"/>
<path fill-rule="evenodd" clip-rule="evenodd" d="M182.05 87.44L165.7 103.35L168.36 87.15L172.07 83.79L182.01 87.48L182.04 87.44H182.05Z" fill="#FF811C"/>
<path fill-rule="evenodd" clip-rule="evenodd" d="M133.29 25.8901L116.94 41.8001L132.94 40.5801L133.29 25.8901Z" fill="#FF811C"/>
<path fill-rule="evenodd" clip-rule="evenodd" d="M91.7699 11.24L75.4199 27.15L98.8699 25.75L102.42 16.77L91.7299 11.29L91.7599 11.25L91.7699 11.24Z" fill="#FF811C"/>
<path fill-rule="evenodd" clip-rule="evenodd" d="M40.4099 40.3499L49.7499 48.5299L66.0999 32.6199L56.7499 24.4399L40.3999 40.3499H40.4099Z" fill="#FF811C"/>
<path fill-rule="evenodd" clip-rule="evenodd" d="M48.5401 39.3501L32.1901 55.2601C32.1901 55.2601 28.0501 67.7201 31.7001 81.9801L48.0501 66.0701L48.5401 39.3501Z" fill="#FC744A"/>
<path fill-rule="evenodd" clip-rule="evenodd" d="M185.82 131.74C182.4 129.28 179.1 126.68 175.9 123.92C174.37 128 172.02 131.69 168.98 134.59C171.97 138.15 174.8 141.83 177.5 145.65C171.79 151.19 164.26 153.91 156.65 154.65C154.29 150.6 152.13 146.42 150.17 142.14C144.49 142.54 138.77 141.78 133.2 140.38C134.02 144.42 134.6 148.49 134.94 152.61C123.54 149.68 112.62 144.45 102.54 137.9C103.05 134.31 103.85 130.81 104.98 127.4C98.6702 123.23 92.7302 118.41 87.2702 113.04C84.9002 115.45 82.3102 117.53 79.5302 119.36C70.7002 110.58 62.7802 100.55 56.7802 89.28C60.2102 88.13 63.7302 87.28 67.2802 86.7C64.2602 81.0099 61.8002 74.91 60.2502 68.57C56.1602 68 52.0702 67.16 48.0702 66.07C46.2102 57.27 46.0102 47.96 48.5602 39.35C52.4702 40.91 56.3202 42.71 60.0902 44.67C61.3002 40.24 63.3602 36.14 66.1302 32.68C62.9102 30.12 59.7802 27.35 56.7802 24.5C61.7102 19 68.1002 15.3 74.9102 13.27C77.3702 16.14 79.7002 19.1 81.9002 22.19C86.2002 20.84 90.7202 20.31 95.2002 20.38C93.8702 17.44 92.7202 14.4 91.7702 11.27C99.8802 11.6 107.93 13.54 115.6 16.59C116.19 19.37 116.61 22.17 116.85 24.98C121.84 26.98 126.62 29.5 131.2 32.48C131.69 30.22 132.4 28.01 133.35 25.93C141.15 31.08 148.37 37.29 154.91 44.23C153.8 46.05 152.47 47.74 150.97 49.21C155.01 53.56 158.72 58.21 162.03 63.21C164.21 62.45 166.41 61.93 168.7 61.58C174.06 69.61 178.67 78.2999 182.1 87.45C179.38 87.41 176.64 87.13 173.98 86.61C175.81 91.76 177.15 97.07 177.83 102.53C181.08 104 184.21 105.68 187.33 107.51C188.44 115.57 188.34 124.01 185.91 131.72H185.84L185.82 131.74ZM148.99 94.8C148.7 96.54 148.15 98.2299 147.33 99.78C141.93 109.95 128.73 107.67 120.34 103.71C118.5 102.84 116.69 101.81 114.93 100.7C112.6 99.2199 110.4 97.57 108.33 95.71C106.53 94.14 104.82 92.4 103.21 90.57C96.2002 82.55 89.0702 69.56 93.2602 58.34C97.8802 46.07 112.48 47.32 121.86 51.84C123.7 52.71 125.48 53.78 127.2 54.89C135.61 60.48 142.8 68.95 146.71 78.84C148.66 83.82 149.89 89.45 148.95 94.8H148.99Z" fill="#FFCD30"/>
<path fill-rule="evenodd" clip-rule="evenodd" d="M91.7702 13.2201C90.7702 13.2001 89.9702 12.3501 89.9302 11.2601C89.9302 10.1701 90.7002 9.32005 91.7002 9.30005C91.7002 9.30005 103.28 9.33005 116.18 14.7501C116.78 15.0001 117.19 15.5501 117.33 16.2301C117.33 16.2301 118.14 20.4701 118.48 23.5801C120.49 24.4301 124.98 26.4001 130.04 29.5201C130.41 28.2001 130.96 26.5501 131.67 25.0401C131.91 24.5501 132.3 24.2001 132.75 24.0401C133.2 23.8801 133.74 23.9401 134.17 24.2501C134.17 24.2501 146.61 32.2501 156.08 42.8701C156.68 43.5501 156.79 44.5901 156.32 45.3301C156.32 45.3301 155.02 47.4001 153.41 49.2301C155.34 51.4501 159.19 56.0101 162.59 60.8501C164.08 60.3901 166.55 59.6801 168.43 59.5801C169.03 59.5201 169.64 59.8501 170.01 60.4001C170.01 60.4001 179.26 74.1501 183.64 86.7501C183.84 87.3501 183.76 88.0201 183.42 88.5601C183.08 89.1001 182.54 89.3901 181.93 89.3701C181.93 89.3701 179.17 89.3301 176.5 89.0101C177.29 91.6501 178.42 95.8201 179.26 101.1C180.76 101.81 183.87 103.33 187.97 105.73C188.39 105.96 188.68 106.36 188.83 106.85C188.83 106.85 191.01 113.4 189.1 124.87C188.92 125.94 187.98 126.61 187 126.44C186.01 126.23 185.38 125.2 185.56 124.13C186.91 116.03 186.06 110.67 185.63 108.84C180.41 105.85 177.01 104.36 177.01 104.36C176.41 104.11 176 103.53 175.89 102.84C174.5 93.4101 172.16 87.3801 172.16 87.3801C171.88 86.7101 172.02 85.9201 172.43 85.3701C172.88 84.8201 173.57 84.5601 174.23 84.7301C175.62 85.1001 177.65 85.2901 179.26 85.3601C175.51 75.9701 169.62 66.5501 167.73 63.6301C165.37 63.9801 162.51 65.0401 162.51 65.0401C161.75 65.3101 160.94 65.0401 160.47 64.3101C155.71 57.2701 149.58 50.5201 149.58 50.5201C149.22 50.1301 149.02 49.6001 149.04 49.0601C149.06 48.5201 149.29 47.9901 149.65 47.6401C150.67 46.7201 151.71 45.3401 152.4 44.3801C145.57 37.0401 137.52 31.1801 134.07 28.7601C133.28 30.9401 132.87 32.9201 132.87 32.9201C132.75 33.5201 132.33 34.0201 131.82 34.2701C131.31 34.5101 130.7 34.4601 130.2 34.1201C122.9 29.3101 116.22 26.8201 116.22 26.8201C115.52 26.5801 115.06 25.8801 114.98 25.0801C114.85 23.0301 114.27 19.7101 113.96 17.9901C102.13 13.2401 91.7202 13.1701 91.7202 13.1701L91.7602 13.2401L91.7702 13.2201Z" fill="#FBF8A9"/>
<path fill-rule="evenodd" clip-rule="evenodd" d="M116.5 47.75C117.46 48.04 118.03 49.12 117.78 50.19C117.52 51.23 116.55 51.83 115.55 51.54C115.55 51.54 109.95 49.83 104.38 51C100.88 51.73 97.3801 53.59 95.4401 57.94C93.4201 62.49 93.4401 67.78 95.0801 73.18C97.6301 81.68 104.02 90.35 112.97 97.01C121.8 103.57 130.02 105.76 136.23 104.92C140.04 104.43 143.06 102.77 144.82 100.31C149.37 93.88 147.06 85.59 145.68 81.02C145.37 80 145.9 78.86 146.83 78.57C147.76 78.25 148.79 78.84 149.1 79.86C150.74 85.3 153.1 95.1 147.7 102.74C145.44 105.92 141.65 108.15 136.75 108.79C129.87 109.7 120.75 107.48 110.99 100.19C101.31 92.97 94.4501 83.5 91.6801 74.28C89.7601 67.86 89.8201 61.55 92.2201 56.15C94.7101 50.54 99.1801 48.04 103.66 47.1C110.07 45.77 116.48 47.71 116.48 47.71V47.75H116.5Z" fill="#FBF8A9"/>
<path d="M56.7598 24.49C56.7598 24.49 63.2098 16.98 74.8898 13.26" stroke="#FBF8A9" stroke-width="1.01" stroke-linecap="round" stroke-linejoin="round"/>
</g>
<path fill-rule="evenodd" clip-rule="evenodd" d="M145.06 56.86C144.93 56.98 141.5 57.38 137.44 57.74C133.38 58.1 129.37 58.6 128.55 58.83C127.72 59.07 124.62 59.46 121.65 59.71C105.96 61.02 86.4301 63.78 86.9301 64.61C87.2501 65.13 86.9701 65.21 86.3001 64.79C84.7901 63.85 69.3101 65.17 69.9301 66.19C70.1801 66.6 69.3601 66.74 68.1101 66.5C66.4401 66.18 65.1101 66.93 63.0901 69.36C60.4901 72.48 60.3801 73.03 60.9301 79.64C61.8701 90.79 62.3901 93.24 64.2501 95.33C67.4201 98.88 69.9901 99.18 83.1001 97.46C89.9501 96.56 96.3201 95.86 97.2601 95.89C98.2001 95.92 99.2101 95.54 99.5101 95.06C99.8101 94.57 100.67 94.41 101.41 94.7C103.12 95.36 155.07 89.22 157.12 88.12C162.4 85.27 163.34 81.32 161.63 69.33C160.61 62.21 160.03 60.63 157.69 58.59C155.48 56.67 153.99 56.25 150.11 56.43C147.45 56.55 145.17 56.75 145.04 56.87L145.06 56.86ZM155.73 60.58C158.53 63.02 159.92 68.4 160.03 77.32C160.14 85.82 159.9 85.93 132.96 89.27C119.98 90.88 106.48 92.44 102.96 92.75C99.4401 93.05 96.4101 93.7 96.2301 94.2C96.0501 94.7 95.4601 94.83 94.9201 94.49C94.3801 94.15 88.9401 94.44 82.8401 95.13C76.7301 95.82 70.6801 96.11 69.3801 95.77C65.9501 94.89 64.6101 92.02 63.5201 83.23C62.4201 74.38 63.2601 70.75 66.7501 69.23C69.5401 68.02 89.3401 65.19 94.4401 65.28C96.5201 65.31 98.0001 64.99 97.7401 64.55C97.4701 64.11 99.5401 63.74 102.33 63.72C107.36 63.68 121.73 62.29 122.68 61.74C122.95 61.58 126.5 61.15 130.56 60.77C134.62 60.39 140.61 59.74 143.86 59.31C149.9 58.5233 153.863 58.9466 155.75 60.58H155.73ZM145.95 63.02C145.66 63.5 145.92 68.22 146.53 73.52L147.65 83.14H150.67C155.92 83.1 156.64 82 156.31 74.49C155.91 65.31 154.63 62.84 150.08 62.45C148.1 62.28 146.24 62.54 145.95 63.02ZM136.57 63.95C134.36 64.39 134.26 64.71 134.85 69.55C136.36 82.06 136.69 84.64 136.81 84.72C136.88 84.77 138.82 84.61 141.13 84.37C143.87 84.08 145.32 83.44 145.32 82.52C145.32 81.5 144.61 81.29 142.75 81.76C139.88 82.49 138.46 81.06 138.44 77.42C138.44 75.84 139 75.18 140.4 75.18C141.53 75.18 142.37 74.52 142.37 73.63C142.37 72.59 141.64 72.18 140.15 72.39C138.3 72.65 137.88 72.18 137.63 69.54C137.37 66.79 137.66 66.34 139.88 66.06C141.28 65.88 142.53 65.29 142.65 64.75C142.89 63.63 140.09 63.26 136.58 63.96L136.57 63.95ZM128.57 65.3C128.57 65.88 129.08 70.58 129.71 75.74C130.52 82.35 131.24 85.13 132.17 85.13C133.77 85.13 133.77 85.3 132.35 73.63C131.54 67.02 130.82 64.24 129.89 64.24C129.16 64.24 128.57 64.71 128.57 65.29V65.3ZM120.32 65.95C118.64 66.39 118.54 67.13 119.16 74.54C120.01 84.67 120.63 87.31 122.04 86.83C122.72 86.6 123.02 84.66 122.82 81.81C122.52 77.66 122.7 77.17 124.54 77.17C125.67 77.17 126.6 76.72 126.6 76.18C126.6 75.64 125.49 75.19 124.14 75.19C121.99 75.19 121.68 74.75 121.68 71.78C121.68 69.04 122.1 68.3 123.82 68.05C126.81 67.61 127.39 65.21 124.47 65.36C123.21 65.42 121.34 65.69 120.33 65.95H120.32ZM152.52 65.99C152.75 66.4 153.24 69.88 153.6 73.73C154.22 80.28 154.13 80.73 152.29 80.73C150.63 80.73 150.23 79.86 149.74 75.22C149.42 72.19 148.94 68.71 148.69 67.48C148.34 65.76 148.69 65.24 150.16 65.24C151.22 65.24 152.28 65.58 152.51 65.99H152.52ZM113.2 73.32C114.21 84.32 114.85 87.13 116.34 87.13C117.35 87.13 117.56 86.08 117.16 82.9C116.87 80.58 116.33 76.02 115.95 72.79C115.52 69.14 114.74 66.73 113.89 66.44C112.76 66.06 112.64 67.28 113.19 73.32H113.2ZM103.36 68.01C102.59 68.52 102.64 71.52 103.53 78.67C104.21 84.14 104.81 88.75 104.85 88.92C104.89 89.09 105.48 88.88 106.16 88.46C106.84 88.04 108.61 87.82 110.1 87.98C112.08 88.19 112.81 87.82 112.81 86.62C112.81 85.32 112.21 85.11 109.96 85.61L107.11 86.24L106.4 79.13C105.49 69.96 104.71 67.12 103.36 68.01ZM92.1201 72.7C92.1201 74.61 92.5601 76.18 93.1101 76.18C93.6601 76.18 94.1001 75.73 94.1001 75.19C94.1001 74.65 94.5401 74.2 95.0901 74.2C95.6401 74.2 96.0801 74.98 96.0801 75.94C96.0801 76.9 96.7201 78.91 97.5001 80.42C98.8601 83.05 98.8201 83.16 96.5101 83.16C94.6201 83.16 94.1101 82.64 94.1101 80.73C94.1101 79.39 93.6701 78.03 93.1201 77.69C92.5201 77.32 92.1101 78.94 92.0601 81.86C92.0201 84.49 91.8401 87.43 91.6601 88.38C91.4601 89.42 91.9301 90.12 92.8401 90.12C93.8601 90.12 94.1801 89.48 93.8301 88.13C93.4101 86.53 93.8001 86.14 95.8201 86.14C97.2001 86.14 98.9001 86.92 99.5901 87.88C101.12 89.99 102.53 88.92 101.49 86.43C101.08 85.45 100.62 83.74 100.47 82.63C100.32 81.52 99.4601 78.05 98.5601 74.92C97.1501 70.01 96.5901 69.23 94.5301 69.23C92.4701 69.23 92.1401 69.69 92.1401 72.71L92.1201 72.7ZM85.0701 74.69C85.2601 77.15 85.7101 79.17 86.0601 79.17C86.4101 79.17 86.7001 81.34 86.7001 83.99C86.7001 88.19 86.4401 88.8 84.7301 88.71C82.7801 88.61 82.1401 86.25 81.0401 75.06C80.8701 73.34 80.3301 72.63 79.4501 72.97C78.4201 73.37 78.2701 74.95 78.8101 79.97C79.7301 88.68 80.9201 91.1 84.2701 91.1C85.7401 91.1 87.4201 90.53 88.0001 89.82C89.2601 88.29 88.5201 78.29 87.0101 76.45C86.3701 75.67 86.3401 75.18 86.9301 75.18C87.4601 75.18 87.6901 74.06 87.4301 72.69C86.5901 68.24 84.6801 69.85 85.0601 74.68L85.0701 74.69ZM68.5901 72.29C66.2901 73.22 66.2501 73.44 66.9001 81.43C67.4001 87.51 68.0501 90.1 69.4501 91.52C70.9601 93.05 71.6101 93.19 72.7701 92.22C73.7501 91.4 74.4201 91.34 74.8501 92.05C76.1101 94.11 78.3901 93.2 77.8301 90.86C77.5401 89.63 76.9001 85.36 76.4201 81.37C75.2401 71.65 73.9301 70.13 68.5801 72.29H68.5901ZM73.4601 78.27C74.5501 85.01 74.0501 89.54 72.1801 89.91C71.1301 90.12 70.4601 89.64 70.4601 88.68C70.4601 87.82 69.9101 87.08 69.2301 87.04C68.5001 86.99 68.4301 86.78 69.0401 86.52C69.6901 86.25 69.9201 83.77 69.6501 80.04C69.2601 74.56 69.3901 74.03 71.0501 74.35C72.2901 74.59 73.0701 75.87 73.4601 78.27Z" fill="white"/>
<path fill-rule="evenodd" clip-rule="evenodd" d="M16.5103 299.03C16.7203 298.01 17.1203 297.06 17.7703 296.6C18.6203 296 18.9903 295.78 18.5503 298.45C18.1103 301.12 17.8703 306.04 17.8703 306.04C17.8703 306.04 20.1903 304.76 23.9003 304.97C27.6103 305.18 30.4803 307.01 30.4803 307.01L30.7103 307.89C30.7103 307.89 31.1303 308.07 31.2003 308.47C31.2703 308.88 31.3603 311.59 31.0103 312.27C30.6603 312.95 28.5203 316 22.9303 315.58C17.3403 315.16 16.3903 312.12 16.0803 311.69C15.7703 311.26 15.7203 302.96 16.5103 299.04V299.03Z" fill="#C1C8D2"/>
<path fill-rule="evenodd" clip-rule="evenodd" d="M20.93 267.38C20.93 267.38 20.53 285.24 21.38 290.27C22.22 295.3 27.65 294.54 28.19 290.08C28.73 285.61 29.51 279.83 30.43 273.73C31.35 267.63 20.93 267.38 20.93 267.38Z" fill="#CF7650"/>
<path fill-rule="evenodd" clip-rule="evenodd" d="M29.9503 276.94C27.0703 279.59 22.8503 279.65 20.8503 279.5C20.8003 273.44 20.9303 267.38 20.9303 267.38C20.9303 267.38 31.3503 267.63 30.4303 273.73C30.2703 274.81 30.1103 275.88 29.9503 276.94Z" fill="#A3533E"/>
<path fill-rule="evenodd" clip-rule="evenodd" d="M17.7801 296.6C17.7801 296.6 18.2901 293.28 19.0401 290.76C19.0401 290.76 17.5801 283.87 20.8901 282.49C20.8901 282.49 20.9901 285.46 21.0701 287.26C21.0701 287.26 22.4101 284.45 25.1601 284.52C27.9101 284.6 28.4301 287.99 28.4301 287.99L28.9101 284.28C28.9101 284.28 30.6001 284.46 29.3401 291.82C29.3401 291.82 30.9701 297.72 30.7001 307.88C30.7001 307.88 28.7301 305.3 23.4001 305.35C18.0701 305.4 17.3701 307.49 17.3701 307.49C17.3701 307.49 18.0301 299.33 18.4401 297.37C18.6701 296.28 17.7601 296.59 17.7601 296.59L17.7801 296.6Z" fill="#CE4950"/>
<path d="M17.77 296.6C17.77 296.6 18.05 294.4 19.03 290.76C19.03 290.76 17.51 284 20.88 282.49C20.88 282.49 20.94 287.45 21.24 289.35" stroke="#AC383B" stroke-width="1.61" stroke-linecap="round" stroke-linejoin="round"/>
<path d="M21.0801 287.26C21.0801 287.26 22.6201 284.26 25.3201 284.53C28.0201 284.8 28.7001 287.82 28.2301 289.77" stroke="#AC383B" stroke-width="1.61" stroke-linecap="round" stroke-linejoin="round"/>
<path d="M16.79 298.05C16.79 298.05 16.09 300.13 15.96 304.36C15.84 308.59 15.69 310.19 16.08 311.69C16.47 313.19 19.46 315.76 23.57 315.62C27.67 315.48 29.9 314.22 31.06 312.17L31.27 310.33" stroke="#9AA6AD" stroke-width="1.61" stroke-linecap="round" stroke-linejoin="round"/>
<path d="M18.2603 309.64C18.2603 309.64 21.6203 313.82 28.9603 310.32" stroke="#9AA6AD" stroke-width="1.61" stroke-linecap="round" stroke-linejoin="round"/>
<path d="M20.8403 291.34C21.0003 291.16 21.7603 289.69 24.3503 289.78C26.9403 289.87 27.5103 291.63 27.5103 291.63" stroke="#C1C8D2" stroke-width="2.42" stroke-linecap="round" stroke-linejoin="round"/>
<path d="M20.7002 290.76C20.8602 290.58 21.8602 289.11 24.4502 289.2C27.0402 289.29 27.6102 291.05 27.6102 291.05" stroke="white" stroke-width="1.61" stroke-linecap="round" stroke-linejoin="round"/>
<path d="M20.6001 295.04C20.6001 295.04 21.3001 293.06 24.0101 293.19C26.7101 293.32 27.3201 295.29 27.3201 295.29" stroke="#C1C8D2" stroke-width="2.42" stroke-linecap="round" stroke-linejoin="round"/>
<path d="M20.3999 294.46C20.3999 294.46 21.3999 292.48 24.0999 292.61C26.7999 292.74 27.4099 294.71 27.4099 294.71" stroke="white" stroke-width="1.61" stroke-linecap="round" stroke-linejoin="round"/>
<path d="M20.2998 298.74C20.2998 298.74 21.1698 296.61 24.0498 296.89C26.9298 297.18 27.2098 299.23 27.2098 299.23" stroke="#C1C8D2" stroke-width="2.42" stroke-linecap="round" stroke-linejoin="round"/>
<path d="M20.21 298.15C20.21 298.15 21.27 296.01 24.16 296.3C27.04 296.59 27.32 298.64 27.32 298.64" stroke="white" stroke-width="1.61" stroke-linecap="round" stroke-linejoin="round"/>
<path d="M20.21 302.63C20.21 302.63 20.9 300.35 24.16 300.68C27.41 301.01 27.32 303.51 27.32 303.51" stroke="#C1C8D2" stroke-width="2.42" stroke-linecap="round" stroke-linejoin="round"/>
<path d="M20.1099 301.85C20.1099 301.85 20.9999 299.77 24.2499 300.09C27.4999 300.42 27.4099 302.92 27.4099 302.92" stroke="white" stroke-width="1.61" stroke-linecap="round" stroke-linejoin="round"/>
<path fill-rule="evenodd" clip-rule="evenodd" d="M55.0498 297.76C55.0498 297.76 54.7298 294.87 54.7598 294.45C54.7898 294.03 55.4098 294.02 55.4098 294.02C55.4098 294.02 59.3898 294.87 62.9598 295.19C66.5298 295.5 67.8398 295.71 70.6298 297.28C73.4198 298.85 73.7398 298.64 73.7398 298.64C73.7398 298.64 74.7698 294.13 77.2398 293.74C79.7198 293.35 83.1698 295.71 82.1998 301.36C82.1998 301.36 80.1598 303.63 75.0998 302.92C71.4098 302.4 67.5298 299.42 63.6398 299.06C59.7598 298.7 56.6898 298.78 55.0498 297.76Z" fill="#C1C8D2"/>
<path fill-rule="evenodd" clip-rule="evenodd" d="M51.7402 264.97C51.7402 264.97 56.3102 286.92 58.9402 289.88C61.5702 292.84 70.8602 293.79 69.4502 290.85C68.0402 287.91 63.9802 285.31 62.9502 280.92C61.9202 276.53 62.3702 265.08 60.8902 264.08C57.8202 262 51.7402 264.96 51.7402 264.96V264.97Z" fill="#CF7650"/>
<path fill-rule="evenodd" clip-rule="evenodd" d="M62.1602 272.59C59.8002 274.98 56.5602 275.86 54.3202 276.18C52.8702 270.37 51.7402 264.97 51.7402 264.97C51.7402 264.97 57.8102 262.02 60.8902 264.09C61.7202 264.65 61.9502 268.52 62.1602 272.58V272.59Z" fill="#A3533E"/>
<path fill-rule="evenodd" clip-rule="evenodd" d="M55.4402 294.26C55.4402 294.26 54.2802 286.64 54.5602 284.43C54.8402 282.22 55.9002 282.11 55.9002 282.11C55.9002 282.11 56.8002 285.03 57.5802 287.25C57.5802 287.25 59.6602 289.04 64.3902 289.2C64.3902 289.2 61.5802 286.24 62.4402 284.63C63.3002 283.01 64.1202 283.79 64.1202 283.79C64.1202 283.79 63.4802 282.82 63.0302 281.25C63.0302 281.25 64.0802 281.81 64.9702 284.14C64.9702 284.14 66.9002 284.91 67.9902 286.67C69.0802 288.43 71.4702 290.01 74.0202 291.83C76.5702 293.65 77.2302 293.75 77.2302 293.75C77.2302 293.75 75.1402 295.57 74.5102 297.87C73.8702 300.17 74.3002 299.74 73.3402 299.33C72.3802 298.92 68.7802 296.53 63.7102 295.73C60.7102 295.26 55.4402 295.25 55.4402 294.27V294.26Z" fill="#CE4950"/>
<path d="M55.4402 294.26C55.4402 294.26 54.2102 286.47 54.5602 284.43C54.9102 282.39 55.9002 282.11 55.9002 282.11C55.9002 282.11 56.9702 285.71 57.5802 287.25C57.5802 287.25 59.1602 288.88 64.3902 289.2C64.3902 289.2 61.4802 286.22 62.5002 284.52C63.5202 282.82 65.6602 283.81 67.3302 285.81" stroke="#AC383B" stroke-width="1.61" stroke-linecap="round" stroke-linejoin="round"/>
<path d="M65.0703 292.02C65.0703 292.02 64.9003 288.18 68.2803 286.67" stroke="#C1C8D2" stroke-width="2.42" stroke-linecap="round" stroke-linejoin="round"/>
<path d="M64.6801 291.63C64.6801 291.63 64.5101 287.8 67.8901 286.28" stroke="white" stroke-width="1.61" stroke-linecap="round" stroke-linejoin="round"/>
<path d="M67.6001 293.19C67.6001 293.19 67.6001 289.69 70.4201 288.72" stroke="#C1C8D2" stroke-width="2.42" stroke-linecap="round" stroke-linejoin="round"/>
<path d="M67.21 292.8C67.21 292.8 67.21 289.3 70.03 288.33" stroke="white" stroke-width="1.61" stroke-linecap="round" stroke-linejoin="round"/>
<path d="M70.2302 294.8C70.2302 294.8 70.0602 291.32 72.7602 290.45" stroke="#C1C8D2" stroke-width="2.42" stroke-linecap="round" stroke-linejoin="round"/>
<path d="M69.84 294.41C69.84 294.41 69.67 290.93 72.37 290.06" stroke="white" stroke-width="1.61" stroke-linecap="round" stroke-linejoin="round"/>
<path d="M72.7603 295.82C72.7603 295.82 72.6703 292.9 74.8003 292.02" stroke="#C1C8D2" stroke-width="2.42" stroke-linecap="round" stroke-linejoin="round"/>
<path d="M72.3702 295.43C72.3702 295.43 72.2802 292.51 74.4102 291.64" stroke="white" stroke-width="1.61" stroke-linecap="round" stroke-linejoin="round"/>
<path d="M55.0498 297.76C55.0498 297.76 55.6398 298.4 58.9998 298.71C62.3598 299.02 63.7099 298.85 66.2599 299.65C68.8099 300.44 72.2299 302.89 76.2899 303.05C80.3599 303.21 82.1899 301.37 82.1899 301.37C82.1899 301.37 82.8599 298.49 81.6199 296.22" stroke="#9AA6AD" stroke-width="1.61" stroke-linecap="round" stroke-linejoin="round"/>
<path fill-rule="evenodd" clip-rule="evenodd" d="M56.6199 190.53C56.6199 190.53 59.3099 221.5 60.6999 239.64C62.0899 257.79 63.2899 268.63 63.0999 269.26C62.9099 269.89 61.3099 272.03 55.4899 271.76C49.6699 271.5 48.6999 270 48.3999 269.15C48.0999 268.31 46.3999 248.11 45.8999 236.09C45.3899 224.07 42.8799 213.56 42.8799 213.56C42.8799 213.56 38.1199 222.72 36.7299 239.53C35.3399 256.34 33.2499 271.28 32.7699 272.59C32.2899 273.9 29.4599 274.96 25.1599 274.78C20.8599 274.6 17.8799 272.05 17.8599 271.13C17.8399 270.21 21.7399 246.03 22.6599 239.01C23.5799 231.99 23.7799 198.43 24.1199 193.07C24.4199 188.33 56.6299 190.52 56.6299 190.52L56.6199 190.53Z" fill="#133660"/>
<path d="M60.7002 239.65C60.7002 239.65 62.9502 266.14 63.1002 269.27C63.1002 269.27 62.2202 271.91 56.5202 271.79C50.8202 271.67 48.7402 270.63 48.3402 268.89C47.9402 267.14 47.9302 265.11 47.9302 265.11" stroke="#092240" stroke-width="1.21" stroke-linecap="round" stroke-linejoin="round"/>
<path fill-rule="evenodd" clip-rule="evenodd" d="M23.5098 239.54C23.1198 244.18 23.7898 249.48 25.4598 249.55C27.1298 249.62 25.7799 246.17 24.7699 243.5C24.0899 241.69 23.7799 236.31 23.5199 239.54H23.5098Z" fill="#092240"/>
<path fill-rule="evenodd" clip-rule="evenodd" d="M23.8403 236.65C23.6803 237.91 27.1603 243.56 27.4403 241.73C27.7203 239.9 24.0703 234.87 23.8403 236.65Z" fill="#092240"/>
<path fill-rule="evenodd" clip-rule="evenodd" d="M23.4201 222.78C23.7301 210.77 23.8901 196.43 24.1101 193.08C24.4101 188.34 56.6201 190.53 56.6201 190.53C56.6201 190.53 57.3601 199.01 58.2601 209.7C57.1301 206.72 55.5301 203.64 53.8401 204.11C53.8401 204.11 47.4901 209.81 39.6401 210.23C31.7901 210.66 28.2401 209.33 27.2301 212C26.5801 213.74 24.8401 215.76 23.4201 222.77V222.78ZM21.6301 274.08C19.3101 273.21 17.8701 271.78 17.8501 271.14C17.8401 270.51 19.6601 258.94 21.1101 249.47C20.5701 261.31 20.3701 270.3 21.6301 274.08ZM46.5101 247.06C46.2501 243.17 46.0301 239.34 45.8901 236.1C45.3801 224.08 42.8701 213.57 42.8701 213.57C42.8701 213.57 45.2401 211.42 47.8701 210.02C50.5001 208.62 52.3301 207.77 50.8901 210.44C49.4501 213.1 47.4001 217.26 47.1401 229.21C46.8801 241.16 47.1701 244 48.3901 242.35C49.6101 240.7 52.3601 239.89 50.7901 241.93C49.2101 243.97 46.9301 244.15 48.3901 246.21C49.8601 248.27 51.3301 252.36 49.6401 250.9C47.9501 249.44 46.6101 244.88 46.5001 247.05L46.5101 247.06Z" fill="#092240"/>
<path fill-rule="evenodd" clip-rule="evenodd" d="M57.9503 151.19C57.8103 151.72 57.4803 152.34 56.8303 152.61C56.0103 152.95 54.8203 152.87 54.2203 152.8C46.3803 151.81 39.0103 149.4 32.0603 145.62C31.6603 145.4 30.6403 144.93 30.1203 144.04C29.6603 143.25 29.6803 142.04 29.6803 141.59C29.6803 133.24 32.5103 121.92 37.3003 114.34C42.5003 106.11 47.4403 107.32 48.7203 107.82C50.6303 107.55 52.6203 107.69 54.5603 108.32C60.7203 110.29 64.4403 116.43 63.7903 122.83C63.7203 123.79 63.5803 124.91 63.3903 126.14C63.3403 126.5 63.2803 126.87 63.2203 127.25C62.6503 131.04 60.8903 143.6 61.7003 150.36C62.3003 155.39 59.8603 153.39 57.9503 151.2V151.19Z" fill="#191D36"/>
<path fill-rule="evenodd" clip-rule="evenodd" d="M26.8502 191.66C25.4602 184.54 25.7102 149.88 31.6002 148.05C37.4902 146.21 56.2103 143.69 59.1303 146.82C62.0502 149.95 63.5702 188.99 60.7502 192.84C57.9302 196.69 28.2502 198.78 26.8602 191.66H26.8502Z" fill="#272741"/>
<path fill-rule="evenodd" clip-rule="evenodd" d="M26.8799 193.03C26.8799 193.03 19.5699 187.02 19.5899 183.02C19.6199 179.01 21.2299 146.92 24.8599 145.96C28.4899 145 29.4999 145.96 31.2799 149.49C32.7499 152.4 29.1099 186.36 28.8099 189.64C28.4999 192.92 28.4699 194.02 26.8899 193.04L26.8799 193.03Z" fill="#41417F"/>
<path fill-rule="evenodd" clip-rule="evenodd" d="M24.8099 147.1C24.8099 147.1 29.0599 146.96 31.4399 150C31.4399 150 37.6999 147.69 45.3399 147.18C51.3399 146.78 58.9998 148.21 59.6999 147.81C60.6198 147.28 56.3499 142.83 51.0998 141.85C45.8498 140.88 33.6699 142.61 28.4299 144.32C24.2999 145.67 23.3899 146.67 24.8099 147.09V147.1Z" fill="#555788"/>
<path fill-rule="evenodd" clip-rule="evenodd" d="M27.0602 147.58C26.7702 147.65 26.4802 147.48 26.4102 147.19C26.3402 146.9 26.5202 146.61 26.8002 146.54C26.8002 146.54 42.4102 142.59 55.4602 142.7C55.7602 142.7 56.0002 142.95 55.9902 143.24C55.9902 143.54 55.7502 143.78 55.4502 143.77C42.5302 143.66 27.0702 147.57 27.0702 147.57L27.0602 147.58Z" fill="#171717"/>
<path fill-rule="evenodd" clip-rule="evenodd" d="M50.5402 156.07L57.4402 173.89C57.4402 173.89 58.2002 175.4 59.5502 175.14C60.9002 174.88 65.6902 173.5 68.1502 171.12C70.6102 168.74 70.3302 168.04 70.2702 166.72C70.2302 165.82 69.6702 163.41 68.0902 159.46C66.6102 155.77 63.4402 149.28 60.9602 147.67C59.3402 146.49 57.2302 146.02 55.1502 146.56C52.1802 147.33 50.1602 149.92 49.9702 152.82C49.9202 153.54 49.9902 154.27 50.1802 155C50.2802 155.37 50.4002 155.73 50.5502 156.06L50.5402 156.07Z" fill="#0EB891"/>
<path fill-rule="evenodd" clip-rule="evenodd" d="M56.4702 171.38L57.4402 173.9C57.4402 173.9 58.2002 175.41 59.5502 175.14C60.9002 174.88 65.6902 173.5 68.1502 171.12C70.6102 168.74 70.3302 168.04 70.2702 166.72C70.2302 165.88 69.7502 163.74 68.4102 160.27C67.5502 164.04 64.8402 170.88 56.4702 171.38Z" fill="#1D8D74"/>
<path fill-rule="evenodd" clip-rule="evenodd" d="M70.0599 168.76C70.0599 168.76 70.7299 170.72 70.6399 171.27C70.5399 171.83 69.3799 173.57 66.0199 175.36C62.6599 177.15 59.7299 177.27 59.5999 177.18C59.4699 177.1 58.6499 175.04 58.6499 175.04C58.6499 175.04 62.0999 174.66 65.4199 172.91C68.2899 171.39 70.0599 168.76 70.0599 168.76Z" fill="#212C3B"/>
<path fill-rule="evenodd" clip-rule="evenodd" d="M68.9799 173.15C68.7599 173.01 67.4699 174.64 64.8199 175.74C62.3599 176.76 60.1199 176.92 59.9199 177.05C59.7199 177.18 61.9399 183.06 63.4799 185.81C64.9399 188.41 66.3299 189.41 68.7199 189.78C71.5199 190.21 75.0399 185.91 73.6799 183.28C70.6399 177.37 69.4099 173.45 68.9699 173.15H68.9799Z" fill="#CF7650"/>
<path fill-rule="evenodd" clip-rule="evenodd" d="M70.4201 176.23C69.7101 174.51 69.1601 173.26 68.9901 173.14C68.7701 172.99 67.4801 174.63 64.8301 175.73C62.3701 176.75 60.1301 176.91 59.9301 177.04C59.7901 177.13 60.8401 179.92 61.9601 182.57C65.8301 182.26 68.8601 178.54 70.4201 176.23Z" fill="#B3573F"/>
<path fill-rule="evenodd" clip-rule="evenodd" d="M76.9202 161.96C76.9202 161.96 74.1002 166.61 71.0202 171.95C69.0402 175.39 66.2902 178.73 65.4002 181.97C64.3102 185.9 66.3002 188.65 68.1902 189.34C69.9902 190 73.0102 188.86 74.5102 185.25C77.8302 177.25 80.9002 168.24 82.1502 163.64C83.4002 159.04 79.1102 157.91 76.9302 161.96H76.9202Z" fill="#CF7650"/>
<path fill-rule="evenodd" clip-rule="evenodd" d="M82.8803 154.62C84.5803 153.32 85.2903 151.95 86.0203 152.78C86.7503 153.61 85.9103 154.9 84.8203 156.36C84.8203 156.36 88.4503 154.2 90.2403 152.63C92.0303 151.06 93.7503 150.12 93.5703 151.57L93.8203 152.35C93.8203 152.35 93.8203 152.86 93.4403 154C93.4403 154 94.1703 154.53 92.9803 157.14C92.9803 157.14 92.4003 160.55 90.1603 162.52C87.9203 164.5 81.4703 168.36 78.8503 164.34C76.2303 160.32 78.7803 157.82 79.8703 156.98C80.9703 156.13 82.2303 155.13 82.8703 154.63L82.8803 154.62Z" fill="#CF7650"/>
<path fill-rule="evenodd" clip-rule="evenodd" d="M91.6301 160.18C91.5601 160.3 91.5901 160.47 91.7201 160.54C91.8401 160.61 92.0001 160.58 92.0801 160.45C92.0801 160.45 93.0801 158.8 93.2401 157.7C93.3301 157.09 93.1501 156.63 92.6401 156.51C92.4001 156.45 92.2001 156.46 92.0301 156.51C91.6601 156.62 91.4101 156.95 91.1501 157.45C90.6801 158.32 90.0701 159.73 87.9001 160.81C87.7701 160.87 87.7201 161.03 87.7801 161.16C87.8401 161.29 88.0001 161.34 88.1301 161.27C90.4501 160.12 91.1101 158.62 91.6101 157.69C91.8601 157.22 92.0301 156.9 92.5201 157.01C92.6601 157.05 92.7101 157.15 92.7301 157.28C92.7601 157.5 92.7101 157.77 92.6201 158.07C92.3301 159.04 91.6301 160.18 91.6301 160.18Z" fill="#A3533E"/>
<path fill-rule="evenodd" clip-rule="evenodd" d="M86.1699 152.57C86.0499 152.49 85.8899 152.51 85.8099 152.63C85.7199 152.75 85.7499 152.91 85.8599 152.99C85.8599 152.99 86.2299 153.31 85.9399 154.09C85.6999 154.74 85.0599 155.63 83.6299 156.86C83.5299 156.94 83.5099 157.08 83.5699 157.19C83.6299 157.3 83.7599 157.34 83.8799 157.3C83.8799 157.3 85.8499 156.59 88.6199 154.2C90.2399 152.8 91.3699 151.75 92.2199 151.27C92.6699 151.01 93.0199 150.91 93.3099 151.12C93.4299 151.2 93.5899 151.17 93.6699 151.06C93.7499 150.94 93.7299 150.78 93.6099 150.7C93.1799 150.4 92.6499 150.44 91.9699 150.83C91.1099 151.32 89.9399 152.39 88.2899 153.82C87.0999 154.85 86.0599 155.56 85.2699 156.03C85.9199 155.32 86.2599 154.74 86.4299 154.29C86.6499 153.7 86.5899 153.29 86.4799 153.03C86.3599 152.73 86.1699 152.59 86.1699 152.59V152.57Z" fill="#A3533E"/>
<path fill-rule="evenodd" clip-rule="evenodd" d="M79.55 161.71C79.45 161.81 79.44 161.97 79.55 162.08C79.65 162.18 79.81 162.19 79.92 162.08C79.92 162.08 82.5 159.62 85.67 161.53C85.79 161.6 85.95 161.56 86.03 161.44C86.1 161.32 86.06 161.15 85.94 161.08C82.42 158.96 79.56 161.7 79.56 161.7L79.55 161.71Z" fill="#A3533E"/>
<path fill-rule="evenodd" clip-rule="evenodd" d="M86.89 156.79C86.76 156.85 86.7 157 86.75 157.13C86.8 157.26 86.96 157.32 87.09 157.27C87.09 157.27 89.84 156.11 91.04 154.39C91.85 153.23 92.3 152.41 92.67 151.99C92.84 151.8 92.96 151.7 93.14 151.75C93.41 151.83 93.54 152.03 93.56 152.32C93.59 152.71 93.46 153.23 93.2 153.89C93.15 154.02 93.21 154.18 93.35 154.23C93.48 154.28 93.63 154.22 93.69 154.08C93.98 153.33 94.11 152.72 94.08 152.28C94.04 151.74 93.77 151.4 93.29 151.26C92.93 151.15 92.62 151.26 92.28 151.65C91.9 152.08 91.44 152.91 90.61 154.1C89.48 155.72 86.89 156.8 86.89 156.8V156.79Z" fill="#A3533E"/>
<path fill-rule="evenodd" clip-rule="evenodd" d="M87.46 158.84C87.32 158.88 87.25 159.03 87.29 159.17C87.33 159.31 87.48 159.38 87.62 159.34C87.62 159.34 89.46 158.76 91.02 156.84C91.84 155.83 91.97 155.62 92.18 155.33C92.28 155.19 92.61 154.67 92.96 154.36C93.03 154.29 93.11 154.24 93.18 154.2C93.21 154.18 93.25 154.17 93.27 154.2C93.42 154.34 93.43 154.6 93.39 154.91C93.33 155.5 93.06 156.23 92.79 156.86C92.73 156.99 92.79 157.15 92.93 157.2C93.06 157.26 93.22 157.2 93.27 157.06C93.56 156.38 93.85 155.59 93.92 154.96C93.97 154.46 93.88 154.05 93.63 153.81C93.41 153.6 93.12 153.62 92.83 153.81C92.39 154.1 91.89 154.85 91.76 155.03C91.56 155.32 91.43 155.52 90.62 156.51C89.17 158.29 87.46 158.84 87.46 158.84Z" fill="#A3533E"/>
<path d="M77.2702 147.75L73.9502 142.23" stroke="#47A9E0" stroke-linecap="round"/>
<path d="M82.0099 146.23L80.4399 139.18" stroke="#47A9E0" stroke-linecap="round"/>
<path d="M87.1499 145.38L89.6099 140.39" stroke="#47A9E0" stroke-linecap="round"/>
<path fill-rule="evenodd" clip-rule="evenodd" d="M57.9799 176.16C57.9799 176.16 55.2799 181.78 56.7199 191.98C58.1599 202.18 58.9199 206.12 58.0799 206.83C57.1599 207.62 49.7199 211.55 32.7299 211.93C32.7299 211.93 31.5199 210.79 30.1999 205.08C30.1099 204.67 29.7499 204.23 29.5199 205.01C29.1499 206.27 28.6499 207.77 28.4099 210.28C28.3899 210.46 28.1499 210.72 27.8399 210.54C27.1599 210.14 22.9699 208.28 23.0099 207.43C23.0599 206.39 21.5099 199.15 25.0699 170.52C25.3199 168.12 25.6199 165.98 25.9099 164.18C26.2999 161.75 26.6799 159.93 26.9199 158.89C26.9699 158.54 27.0599 158.21 27.1599 157.88C27.6999 156.19 29.0899 154.37 30.6499 153.56C30.7599 153.5 35.2099 150.32 35.3299 150.27C45.9599 145.2 55.0799 146.41 55.0799 146.41C55.2399 146.39 55.4099 146.38 55.5799 146.37C59.2699 146.24 62.3799 149.13 62.5099 152.83C62.8599 162.66 60.8799 171.42 58.4899 175.24C58.3099 175.53 58.1399 175.84 57.9799 176.16Z" fill="#0EB891"/>
<path fill-rule="evenodd" clip-rule="evenodd" d="M33.3202 201.18C29.7002 200.4 22.8702 198.26 22.9202 195.05C22.9802 191.34 23.4102 185.41 24.1102 178.54C24.3802 175.91 24.6902 173.1 25.0702 170.1C25.2902 168.02 25.9302 163.23 26.3302 161.33L36.0202 161.69C36.0202 161.69 28.8902 175.12 32.7602 185.29C36.1802 194.28 38.9502 202.39 33.3202 201.18Z" fill="#1D8D74"/>
<path fill-rule="evenodd" clip-rule="evenodd" d="M62.5299 153.29C62.7299 162.76 60.7999 171.1 58.4899 174.81C58.3099 175.1 58.1399 175.41 57.9799 175.73C57.9799 175.73 55.2799 181.35 56.7199 191.55C58.1599 201.75 58.9199 205.69 58.0799 206.4C57.4899 206.9 54.2199 208.7 47.4799 210.03C49.8399 207.58 55.1999 201.44 54.7199 183.78C54.5599 177.88 48.1499 180.46 44.2599 178.35C40.3699 176.24 50.9399 176.15 57.2999 170.53C63.6599 164.91 60.4499 152.91 61.3399 152.57C62.2399 152.23 62.5299 153.29 62.5299 153.29Z" fill="#1D8D74"/>
<path fill-rule="evenodd" clip-rule="evenodd" d="M54.5903 144.94C52.5803 144.57 54.3903 148.46 57.4303 157.65C58.4703 160.78 59.0803 164.56 58.8503 169.08C58.7103 171.83 58.4303 173.96 58.0403 175.58C57.3203 176.62 56.2003 182.05 56.3703 183.24C58.4803 182.78 62.2203 179.9 63.7303 173.69C65.4403 166.69 65.4603 162.22 61.9403 152.9C59.9603 147.64 59.0903 146.3 57.9003 145.84C57.4403 145.66 55.8503 145.17 54.5903 144.94Z" fill="#2A4C79"/>
<path fill-rule="evenodd" clip-rule="evenodd" d="M56.1998 160.71C55.3498 160.81 54.9298 159.56 54.1598 158.47C53.3898 157.37 52.6698 156.28 52.0098 157.31C51.3498 158.34 51.1398 159.24 50.5298 159.17C49.9198 159.1 48.6298 157.55 48.0598 157.71C47.4798 157.87 47.1098 158.37 47.1398 159.5C47.1698 160.62 47.3898 162.21 46.5098 162.05C45.6198 161.89 40.9198 158.67 39.7598 152.19C38.5998 145.7 41.4398 141.94 45.9798 141.4C50.5198 140.86 55.0098 142.75 57.0998 149.67C59.1898 156.59 57.2198 160.61 56.1998 160.73V160.71Z" fill="#212C3B"/>
<path fill-rule="evenodd" clip-rule="evenodd" d="M51.7901 139.47C51.7901 139.47 51.7501 144.3 52.0601 146.99C52.3701 149.68 53.0401 150.29 52.8401 152.94C52.6401 155.59 51.2601 157.58 50.1201 157.62C48.9801 157.66 47.0501 155.87 45.7301 153.08C44.4101 150.29 44.4401 148.26 44.6701 146.37C45.4501 139.88 43.5301 136.42 42.6401 134.23L48.2601 137.12L51.8001 139.47H51.7901Z" fill="#CF7650"/>
<path fill-rule="evenodd" clip-rule="evenodd" d="M45.2898 135.6C45.2898 135.6 50.0598 141.03 51.4698 146.46C52.8798 151.89 51.8698 155.57 49.6498 156.25C48.7898 156.51 47.7698 155.9 46.8498 155.05C47.9898 156.68 49.2698 157.66 50.1098 157.63C51.2498 157.59 52.6298 155.59 52.8298 152.95C53.0298 150.3 52.3598 149.69 52.0498 147C51.7398 144.31 51.7798 139.48 51.7798 139.48L48.2398 137.13L45.2798 135.61L45.2898 135.6Z" fill="#A3533E"/>
<path fill-rule="evenodd" clip-rule="evenodd" d="M29.18 153.31C29.18 153.31 29.24 153.84 29.71 153.82C30.4 153.79 31.47 153.55 32.51 154.92C34.51 157.54 36.44 163.9 35.47 173.33C33.65 191.05 27.68 187.09 26.47 184.92C26.47 184.92 25.28 184.55 25.88 186.4C26.47 188.25 29.3 190.05 32.19 190.55C35.08 191.05 40.52 186.53 41.66 180C42.8 173.47 43.58 165.76 41.54 159.16C39.9 153.84 37.66 149.82 36.49 149.3C35.32 148.78 30.2 151.74 29.7 152.18C28.96 152.84 29.18 153.3 29.18 153.3V153.31Z" fill="#2A4C79"/>
<path d="M57.9 125.87C59.21 123.73 61.73 122.89 63.53 123.99C65.33 125.09 65.73 127.72 64.42 129.86C63.11 132 60.59 132.84 58.79 131.74C56.99 130.64 56.59 128.01 57.9 125.87Z" fill="#A65B32"/>
<path fill-rule="evenodd" clip-rule="evenodd" d="M60.9803 128.59C60.9503 128.71 60.8303 128.79 60.7003 128.76C60.5803 128.73 60.5003 128.61 60.5303 128.49C60.5303 128.49 60.9003 126.87 61.6903 125.95C61.9803 125.61 62.3203 125.37 62.7103 125.3C63.1003 125.23 63.5503 125.33 64.0603 125.71C64.1603 125.79 64.1803 125.93 64.1003 126.03C64.0203 126.13 63.8803 126.15 63.7803 126.07C63.4103 125.79 63.0903 125.69 62.8003 125.75C62.5103 125.8 62.2603 126 62.0403 126.25C61.3203 127.1 60.9803 128.59 60.9803 128.59Z" fill="#80411F"/>
<path fill-rule="evenodd" clip-rule="evenodd" d="M62.3699 119.76C62.5799 120.42 63.4899 124.04 61.6899 129.58C59.7899 135.45 56.4399 139.09 54.5099 139.18C51.4899 139.32 41.9399 136.25 39.4199 126.87C40.6499 126.48 43.1399 125.22 44.4599 121.28C46.2599 115.92 47.8999 110.52 49.7399 111.34C49.7399 111.34 51.1599 109.93 54.8899 114.13C57.9499 117.57 61.2199 119.93 62.3799 119.77L62.3699 119.76Z" fill="#D17A4A"/>
<path fill-rule="evenodd" clip-rule="evenodd" d="M40.8901 126.17C42.1101 125.4 43.5501 123.96 44.4501 121.28C46.0701 116.47 47.5501 111.64 49.1701 111.28C49.1701 111.28 47.4001 112.13 46.2501 118.6C44.8101 126.69 43.6701 127.5 43.6701 127.5L40.9001 126.18L40.8901 126.17Z" fill="#A65B32"/>
<path d="M36.8101 131.69C38.5001 133.81 41.3101 134.39 43.1001 132.97C44.8901 131.55 44.9701 128.68 43.2801 126.56C41.5901 124.44 38.7801 123.87 36.9901 125.28C35.2001 126.7 35.1201 129.57 36.8101 131.69Z" fill="#D17A4A"/>
<path fill-rule="evenodd" clip-rule="evenodd" d="M37.1899 127.59C37.1199 127.7 36.9799 127.73 36.8699 127.66C36.7599 127.59 36.7299 127.45 36.7999 127.34C36.7999 127.34 37.2999 126.55 38.2399 126.29C38.8599 126.12 39.6699 126.16 40.6499 126.83C43.0999 128.5 42.4599 131.18 42.4599 131.18C42.4299 131.3 42.3099 131.38 42.1799 131.35C42.0599 131.32 41.9799 131.2 42.0099 131.07C42.0099 131.07 42.5699 128.69 40.3899 127.2C39.5599 126.64 38.8799 126.58 38.3599 126.72C37.5899 126.93 37.1799 127.58 37.1799 127.58L37.1899 127.59Z" fill="#80411F"/>
<path fill-rule="evenodd" clip-rule="evenodd" d="M44.8803 120.31C44.8803 120.31 46.1503 118.3 48.0103 118.45C49.8803 118.6 50.3303 119.97 50.0703 120.25C49.8003 120.53 49.0703 119.78 47.9103 119.74C46.7503 119.71 45.4303 120.45 45.1603 120.62C44.8903 120.79 44.7203 120.55 44.8803 120.3V120.31Z" fill="#12121F"/>
<path fill-rule="evenodd" clip-rule="evenodd" d="M54.8899 127.42C54.8499 126.36 54.5999 125.49 54.7399 125.61C54.8799 125.73 56.4199 126.71 56.2599 127.36C56.0999 128.01 55.1399 128.89 54.9699 129.03C54.7999 129.16 54.9299 128.48 54.8899 127.42Z" fill="#EB8F5D"/>
<path d="M58.0503 131C58.0503 132.06 56.1403 135.04 53.7903 135.04C51.4403 135.04 48.2603 132.48 48.2603 131.42C48.2603 130.36 50.5903 130.78 52.9403 130.78C55.2903 130.78 58.0503 129.93 58.0503 130.99V131Z" fill="#12121F"/>
<path fill-rule="evenodd" clip-rule="evenodd" d="M48.8999 132.27C49.4499 131.73 50.8399 130.84 53.5799 131.4C55.6199 131.82 56.4399 132.66 56.7599 133.36C56.0099 134.05 54.9699 134.6 53.5899 134.61C51.1299 134.63 49.5499 133.33 48.9099 132.28L48.8999 132.27Z" fill="#E3353E"/>
<path fill-rule="evenodd" clip-rule="evenodd" d="M57.33 130.34C57.19 130.73 56.79 131.42 55.57 131.76C53.96 132.2 50.68 132.09 49.5 130.77C50.36 130.73 51.79 130.89 53.72 130.79C55.05 130.72 56.46 130.41 57.34 130.35L57.33 130.34Z" fill="#EFFFFB"/>
<path fill-rule="evenodd" clip-rule="evenodd" d="M48.8301 130.9C48.8301 130.9 50.0501 130.31 53.3001 130.21C56.3201 130.11 57.3701 130.1 58.0401 130.39C57.4501 130.17 55.5301 130.69 53.7301 130.79C51.1501 130.93 49.4601 130.59 48.8401 130.91L48.8301 130.9Z" fill="#A65B32"/>
<path fill-rule="evenodd" clip-rule="evenodd" d="M57.79 132.01C57.79 132.01 57.55 135.1 53.92 135.41C51.11 135.65 49.7 133.72 49.03 132.72C48.74 132.29 48.75 131.99 48.75 131.99C49.27 133.07 50.9 134.62 53.59 134.6C55.81 134.58 57.17 133.18 57.8 132.01H57.79Z" fill="#A65B32"/>
<path fill-rule="evenodd" clip-rule="evenodd" d="M56.8802 117.55C58.3702 117.37 59.6102 118.31 60.1402 118.74C60.3802 118.93 60.3902 119.39 59.9302 119.25C59.5702 119.13 58.8402 118.31 57.1302 118.92C55.7602 119.41 55.3502 119.39 55.1802 119C55.0102 118.61 55.5402 117.71 56.8702 117.55H56.8802Z" fill="#12121F"/>
<path fill-rule="evenodd" clip-rule="evenodd" d="M50.8201 124.49C50.9001 123.85 49.7201 123.04 48.6701 122.82C47.6101 122.6 46.5401 123.07 46.0701 123.68C45.6001 124.3 45.2501 125.16 46.6001 126.03C47.8401 126.83 49.0001 126.39 49.7201 125.94C50.4501 125.49 50.7801 124.82 50.8201 124.48V124.49Z" fill="#EFFFFB"/>
<path fill-rule="evenodd" clip-rule="evenodd" d="M45.8301 125.32C45.6201 125.4 45.0201 124.75 44.8001 124.36C44.5801 123.97 44.4301 123.5 44.7501 123.48C45.0701 123.47 45.3501 123.72 45.3501 123.72C45.3501 123.72 46.3101 122.34 48.0601 122.34C49.8101 122.34 50.9901 123.95 51.1001 124.15C51.2001 124.35 51.1001 124.72 50.7301 124.42C50.3601 124.12 49.6401 122.86 47.8601 122.99C45.6801 123.15 46.0401 125.24 45.8301 125.32Z" fill="#12121F"/>
<path fill-rule="evenodd" clip-rule="evenodd" d="M48.83 122.79C48 123.04 47.57 124.71 48.23 125.44C48.89 126.17 50.53 126.22 50.84 124.51C51.13 122.9 49.67 122.54 48.83 122.79Z" fill="#12121F"/>
<path fill-rule="evenodd" clip-rule="evenodd" d="M59.49 121.75C60.43 122.13 60.68 123.18 60.59 123.52C60.5 123.86 60.11 124.67 59.22 125.09C58.33 125.51 57.26 125.52 56.23 124.83C55.2 124.14 55.72 122.95 56.35 122.32C56.81 121.86 57.66 121.01 59.49 121.75Z" fill="#EFFFFB" stroke="white" stroke-width="0.25" stroke-linecap="round" stroke-linejoin="round"/>
<path fill-rule="evenodd" clip-rule="evenodd" d="M55.5002 123.62C55.4502 124.06 55.7702 124.38 55.9202 123.78C56.0802 123.1 57.1902 121.57 58.6802 121.76C60.1702 121.95 60.3502 123.28 60.4302 123.39C60.5102 123.5 60.7102 123.67 61.0402 123.39C61.3802 123.1 61.8302 122.63 61.6602 122.47C61.4902 122.31 60.9302 122.55 60.9302 122.55C60.9302 122.55 60.0002 120.96 58.3702 121.1C56.2702 121.28 55.5602 123.07 55.4902 123.63L55.5002 123.62Z" fill="#12121F"/>
<path fill-rule="evenodd" clip-rule="evenodd" d="M59.2899 121.66C60.4199 121.58 61.1199 122.77 60.3999 124.17C59.6799 125.56 57.7299 124.52 57.8299 123.33C57.9299 122.18 58.4799 121.72 59.2899 121.66Z" fill="#12121F"/>
<path fill-rule="evenodd" clip-rule="evenodd" d="M63.0701 175.78C63.0701 175.78 54.2701 183.38 49.6201 187.33C46.9501 189.6 44.6701 191.86 41.9201 193.13C38.6801 194.63 36.3301 192.96 35.3501 190.92C34.4201 188.98 34.8401 185.62 37.8701 184.02C46.5601 178.47 56.6901 171.78 60.5601 170.15C64.4001 168.53 66.3101 173.37 63.0601 175.78H63.0701Z" fill="#CF7650"/>
<path d="M56.4701 168.7C56.3701 169.37 56.4101 171.47 56.4401 172.44C56.4701 172.97 56.7301 174.2 58.0001 174.07C59.0501 173.96 59.9501 172.96 59.8901 171.24C59.8501 169.87 59.6901 168.82 59.6801 168.35C60.0001 167.95 61.8001 166.96 62.0301 165.92C62.3101 164.61 61.2601 164.5 60.6901 164.9C60.2701 165.19 58.6201 165.55 58.0001 166.35C57.2601 167.29 56.5401 168.25 56.4701 168.7Z" fill="#C86D46"/>
<path fill-rule="evenodd" clip-rule="evenodd" d="M68.7102 172.3C69.0902 171.76 69.2202 170.92 70.6502 169.09C71.0502 168.58 72.0702 167.07 71.4102 166.65C70.7602 166.23 70.0002 166.88 69.1502 167.7C67.6402 169.15 67.6702 169.22 67.2602 169.64C67.3902 169.21 68.2602 168.09 70.1302 166C71.9902 163.91 72.6202 162.87 71.8602 162.24C71.2902 161.76 70.4502 162.58 70.4502 162.58C70.4502 162.58 71.1002 161.03 70.4502 160.59C69.8002 160.15 68.4802 160.99 65.7902 163.8C63.1002 166.62 63.1602 166.95 63.0402 167.01C63.3302 166.53 63.8502 165.8 64.9102 164.12C66.3602 161.83 67.3102 160.95 66.6002 160.1C65.4202 159.52 64.1502 160.59 62.3402 163.33C61.2002 165.23 59.9302 167 59.9302 167C59.9302 167 59.0102 168.2 57.7902 170.01C56.5102 171.92 55.2802 173.05 57.1202 175.5C58.5702 177.2 61.3702 177.74 63.6702 176.4C66.9602 175.23 68.5702 172.52 68.7202 172.3H68.7102Z" fill="#CF7650"/>
<path d="M65.79 163.79C68.48 160.97 69.8 160.13 70.45 160.58C71.1 161.02 70.45 162.57 70.45 162.57C70.45 162.57 71.29 161.76 71.86 162.23C72.62 162.86 72 163.9 70.13 165.99C68.27 168.08 67.39 169.2 67.26 169.63C67.67 169.22 67.64 169.14 69.15 167.7C70 166.88 70.75 166.23 71.41 166.65C72.06 167.07 71.04 168.58 70.65 169.09C69.22 170.92 69.09 171.75 68.71 172.3C68.56 172.52 66.95 175.24 63.66 176.4M64.91 164.12C66.36 161.83 67.31 160.95 66.6 160.1C65.85 159.73 65.06 160.03 64.11 161.02M57.79 170.01C59.01 168.2 59.93 167 59.93 167C59.93 167 60.27 166.52 60.76 165.79M70.57 162.24C69.52 163.39 66.7 166.62 65.57 168.03M65.49 163.45C64.7 164.76 64.48 165.24 63.34 166.66" stroke="#A3533E" stroke-linecap="round"/>
<path fill-rule="evenodd" clip-rule="evenodd" d="M37.9599 158.29C37.6799 157.48 37.2599 156.75 36.7199 156.12C35.2999 154.43 33.0899 153.44 30.7299 153.68C27.1599 154.03 24.3899 157 24.3899 160.52C24.3899 160.52 23.9999 163.13 24.8699 169.32C25.7399 175.51 27.3799 179.92 27.3799 179.92C27.3799 179.92 27.8699 181.74 29.2399 181.68C30.6199 181.63 34.1799 180.34 37.9599 179.53C41.3299 178.81 42.6399 176.91 42.3699 175.61C42.2299 174.93 41.0599 170.52 39.7999 166.36C39.0499 163.87 38.5799 161.35 38.2999 159.83C38.2499 159.38 38.1599 158.95 38.0299 158.53C38.0099 158.44 37.9799 158.36 37.9499 158.29H37.9599Z" fill="#0EB891"/>
<path fill-rule="evenodd" clip-rule="evenodd" d="M39.0101 178.9V179.3C39.0101 179.3 38.3701 180.33 32.2801 181.19C26.8201 181.96 26.7301 181.04 26.3501 180.66L26.4801 180.12C26.4801 180.12 28.8801 177.85 32.5601 177.5C36.2401 177.15 38.4901 178.1 39.0001 178.9H39.0101Z" fill="#0B1017"/>
<path fill-rule="evenodd" clip-rule="evenodd" d="M39.0399 179.28C39.3999 179.05 39.3399 177.21 39.2099 176.9C39.0899 176.59 38.8099 176.27 38.4699 176.07C38.1299 175.88 36.2699 174.6 32.4899 175.09C28.7099 175.58 26.1499 177.64 25.9499 178.17C25.7499 178.7 25.7499 178.55 25.8499 179.05C25.9499 179.55 26.1099 180.47 26.4999 180.78C26.8899 181.1 26.6499 180.4 27.3999 179.85C28.1499 179.29 29.7999 178.07 32.5399 177.77C35.2799 177.47 38.3299 178.11 38.5099 178.99C38.5799 179.32 38.8299 179.42 39.0399 179.29V179.28Z" fill="#212C3B"/>
<path fill-rule="evenodd" clip-rule="evenodd" d="M28.4303 179.98C28.2603 179.61 30.4203 177.77 32.5603 176.94C34.9403 176.01 37.9003 176.3 38.3203 177.2C40.0803 181.05 42.3103 185.41 42.5003 186.06C42.7603 186.98 44.0303 192.24 40.0203 193.9C35.8903 195.62 33.0503 189.66 31.9903 187.58C31.2003 186.02 29.4803 182.27 28.4303 179.98Z" fill="#CF7650"/>
<path fill-rule="evenodd" clip-rule="evenodd" d="M29.73 182.82C30.15 181.74 31.59 180.09 33.39 179.34C37.18 177.78 40.21 181.22 40.21 181.22C39.55 179.84 38.88 178.42 38.32 177.2C37.91 176.3 34.94 176.01 32.56 176.94C30.42 177.78 28.26 179.62 28.42 179.98C28.79 180.79 29.24 181.8 29.72 182.82H29.73Z" fill="#A3533E"/>
<path fill-rule="evenodd" clip-rule="evenodd" d="M38.3298 177.25C38.2798 177.15 38.1498 177.12 38.0298 177.19C37.9098 177.26 37.8598 177.39 37.8998 177.49L40.7398 183.52C40.7898 183.62 40.9198 183.65 41.0398 183.58C41.1598 183.51 41.2098 183.37 41.1698 183.27L38.3298 177.24V177.25Z" fill="#A3533E"/>
<path fill-rule="evenodd" clip-rule="evenodd" d="M177.1 299.02C177.1 299.02 178.25 300 178.33 301.2C178.41 302.4 178.31 303.91 177.23 304.75C176.15 305.6 173.52 307.56 163.74 307.57C153.96 307.58 148.55 307.26 146.44 306.09C146.44 306.09 144.84 303.41 144.89 302.74C144.94 302.07 145.23 301.46 147.73 300.24C150.23 299.02 158.78 295.79 165.58 295.89C172.38 295.99 176.07 298.19 177.1 299.03V299.02Z" fill="#9FBFBE"/>
<path fill-rule="evenodd" clip-rule="evenodd" d="M172.83 297.62C172.83 297.62 180 300.08 176.85 302.66C173.69 305.24 168.85 305.41 163.11 305.28C157.37 305.15 140.12 304.81 147.36 301.1C154.6 297.38 166.69 295.58 172.83 297.63V297.62Z" fill="#E1FFFD"/>
<path fill-rule="evenodd" clip-rule="evenodd" d="M173.46 279.89C174.49 284.06 175.43 289.43 177.65 296.13C178.39 298.37 176.69 303 168.78 302.7C159.79 302.36 158.75 301.87 153.83 302.27C148.91 302.67 145.84 303.06 145.99 300.93C146.14 298.79 149.15 299.65 152.96 297.27C156.63 294.98 160.36 295.42 165.4 292.59L163.08 284.01C165.2 284.51 170.7 282.59 173.47 279.89H173.46Z" fill="#DF8260"/>
<path fill-rule="evenodd" clip-rule="evenodd" d="M164.23 288.25L163.08 284C165.2 284.5 170.7 282.58 173.47 279.88C173.64 280.55 173.8 281.25 173.97 281.99C170.8 286.61 166.51 287.89 164.23 288.24V288.25Z" fill="#D15844"/>
<path d="M150.13 299.41C150.13 299.41 146.58 298.88 145.99 300.92" stroke="#D15844" stroke-width="1.13" stroke-linecap="round" stroke-linejoin="round"/>
<path fill-rule="evenodd" clip-rule="evenodd" d="M173.88 292.61C174.57 292.98 174.84 294.48 173.6 295.88C172.28 297.38 168.27 299.06 168.84 298.24C169.41 297.42 173.19 292.25 173.88 292.61Z" fill="#D15844"/>
<path fill-rule="evenodd" clip-rule="evenodd" d="M155.03 296.13C155.03 296.13 152.8 295.97 151.65 297.18L151.7 297.74L152.53 297.53C152.53 297.53 154.4 296.41 155.03 296.14V296.13Z" fill="#769C9B"/>
<path fill-rule="evenodd" clip-rule="evenodd" d="M148.54 299.07C148.54 299.07 148.3 298.61 148.91 298.22C149.52 297.84 149.66 298.17 150.7 297.48C151.74 296.79 154.85 297.16 158.73 299.02C162.61 300.89 164.57 303.76 164.57 303.76C164.57 303.76 164.81 304.13 164.28 304.17C163.75 304.21 161.73 304.09 161.4 304.07C161.08 304.05 160.98 303.94 160.49 303.39C160 302.84 159.43 301.4 155.13 300.19C150.83 298.98 148.53 299.06 148.53 299.06L148.54 299.07Z" fill="#9FBFBE"/>
<path d="M150.7 297.48C150.7 297.48 151.49 296.84 153.91 297.34C156.34 297.84 160.12 299.2 163.08 302.07" stroke="#E1FFFD" stroke-width="1.13" stroke-linecap="round" stroke-linejoin="round"/>
<path fill-rule="evenodd" clip-rule="evenodd" d="M163.71 186.39C163.71 186.39 151.95 215.75 148.53 224.28C145.11 232.81 144.8 238.05 147.59 245.02C150.38 251.99 162.19 283.95 162.19 283.95C162.19 283.95 171.84 286.26 177.27 276.03C177.27 276.03 162.67 238.42 162.75 236.16C162.83 233.9 169.44 215.16 176.75 208.92C184.06 202.68 184.94 194.66 179.44 191.48C173.94 188.31 163.7 186.39 163.7 186.39H163.71Z" fill="#0A223E"/>
<path fill-rule="evenodd" clip-rule="evenodd" d="M163.86 232.07C165.69 225.62 171.23 211.08 168.97 203.47C166.02 193.52 154.91 208.33 154.91 208.33L163.7 186.39C163.7 186.39 173.94 188.31 179.44 191.48C184.94 194.65 184.06 202.68 176.75 208.92C171.2 213.66 166.05 225.61 163.86 232.07ZM154.07 262.13C154.98 262.7 155.98 262.82 157.05 262.27C161.97 259.74 162.75 242.31 162.87 236.89C164.3 242.63 177.26 276.03 177.26 276.03C171.83 286.26 162.18 283.95 162.18 283.95C162.18 283.95 158.03 272.73 154.07 262.13Z" fill="#031323"/>
<path fill-rule="evenodd" clip-rule="evenodd" d="M160.41 235.5C160.57 233.94 156.43 227.68 154.66 228.62C152.89 229.56 158.47 233.42 157.77 234.28C157.07 235.14 151.76 236.3 152.7 237.86C153.64 239.42 160.25 237.07 160.41 235.5Z" fill="#031323"/>
<path fill-rule="evenodd" clip-rule="evenodd" d="M156.41 279.24C155.9 282.19 158.24 286.26 159.93 288.53C164.05 294.07 168.88 294.03 168.97 291.88C169.09 289.15 167.08 280.78 164.74 277.64C162.4 274.5 157.33 273.93 156.41 279.25V279.24Z" fill="#031323"/>
<path fill-rule="evenodd" clip-rule="evenodd" d="M169.46 287.34C169.46 287.34 162.71 310.16 159.75 309.82C158.33 309.66 154.44 301.25 149.07 295.9C143.21 290.06 136.72 287.37 136.18 286.87C135.15 285.93 141.44 281.64 146.41 285.36C151.38 289.08 157.62 293.21 157.62 293.21C157.62 293.21 162.69 274.8 163.42 272.99C164.15 271.17 169.74 274.18 169.45 287.34H169.46Z" fill="#EEB393"/>
<path d="M160.25 283.74L157.61 293.21" stroke="#DF8260" stroke-width="1.13" stroke-linecap="round" stroke-linejoin="round"/>
<path d="M158.61 294.13C158.61 294.13 157.22 292.71 155.65 291.9" stroke="#DF8260" stroke-width="1.13" stroke-linecap="round" stroke-linejoin="round"/>
<path fill-rule="evenodd" clip-rule="evenodd" d="M160.57 282.64C161.83 278.18 163.08 273.83 163.42 272.99C164.15 271.17 169.74 274.18 169.45 287.34C169.45 287.34 168.4 290.9 166.94 295.19C165.78 285.27 162.5 283.06 160.56 282.64H160.57Z" fill="#DF8260"/>
<path fill-rule="evenodd" clip-rule="evenodd" d="M132.41 284.71C132.41 284.71 133.56 282.8 134.96 283.11C136.35 283.41 144.49 286.06 153.72 294.61C153.72 294.61 152.14 289.1 147.56 286.22C147.56 286.22 147.31 284.1 149.95 286.22C152.59 288.34 156.65 292.72 157.49 299.04C157.49 299.04 162.59 304.9 162.67 308.42C162.67 308.42 162.17 309.84 161.26 311.1C160.35 312.36 155.59 312.72 152.3 307.57C149.01 302.41 148.09 301.07 142.87 298.28C137.66 295.49 130.88 288.6 132.41 284.71Z" fill="#9FBFBE"/>
<path d="M149.94 286.21C149.94 286.21 156.42 290.67 157.48 299.03" stroke="#E1FFFD" stroke-width="1.13" stroke-linecap="round" stroke-linejoin="round"/>
<path d="M132.41 284.7C132.74 283.85 134.32 283.1 134.32 283.1C134.32 283.1 142.58 284.4 150.79 292.05C159 299.69 162.34 306.77 162.34 306.77" stroke="#E1FFFD" stroke-width="1.13" stroke-linecap="round" stroke-linejoin="round"/>
<path d="M132.98 286.21C132.98 286.21 132.77 285.2 133.61 285.36C136.33 285.87 143.44 288.63 149 294.03C156.29 301.11 163.01 309.71 160.26 311.12" stroke="#E1FFFD" stroke-width="1.13" stroke-linecap="round" stroke-linejoin="round"/>
<path fill-rule="evenodd" clip-rule="evenodd" d="M194.05 180.45C194.05 180.45 197.07 190.04 193.39 205.43C189.71 220.82 185.16 227.68 182.08 243.59C179 259.5 168.97 291.87 168.97 291.87C168.97 291.87 166.83 282.11 162.29 279C157.75 275.89 156.41 279.24 156.41 279.24C156.41 279.24 161.69 255.23 165.11 241.07C168.53 226.9 174.24 203.68 171.15 199.56C168.06 195.44 162.93 195.17 164.07 190.54C165.22 185.92 194.05 180.45 194.05 180.45Z" fill="#0A223E"/>
<path fill-rule="evenodd" clip-rule="evenodd" d="M170.02 237.95C171.21 238.02 167.58 242.24 170.02 245.11C172.95 248.56 175.27 252.93 171.91 253.22C168.56 253.51 165.9 249.66 166.44 244.48C166.96 239.46 168.83 237.88 170.02 237.95Z" fill="#051222"/>
<path fill-rule="evenodd" clip-rule="evenodd" d="M164.35 197.18C161.95 193.54 163.23 193.95 164.08 190.55C165.23 185.93 194.05 180.46 194.05 180.46C194.05 180.46 197.07 190.05 193.39 205.44C189.71 220.83 185.16 227.69 182.08 243.6C184.28 224.81 187.88 216.51 188.96 207.31C190.05 198.12 181.56 197.37 172.97 200.38C169.91 201.45 166.47 198.66 164.35 197.18Z" fill="#031323"/>
<path fill-rule="evenodd" clip-rule="evenodd" d="M156.04 138.14C156.06 138.02 156.09 137.9 156.12 137.77C156.68 135.62 158.39 133.84 160.71 133.33C164 132.6 167.26 134.68 167.99 137.97C168.13 138.63 168.17 139.28 168.1 139.92C168.09 140.02 168.08 140.12 168.06 140.21C167.77 142.47 165.91 157 165.78 158.65C165.63 160.44 164.2 161.54 164.2 161.54C156.97 158.56 152.68 158.62 152.68 158.62C152.43 158.5 151.35 158.26 151.86 156.34C152.33 154.59 155.49 140.59 156.04 138.14Z" fill="#0EB891"/>
<path fill-rule="evenodd" clip-rule="evenodd" d="M152.75 152.59C152.75 152.59 152.96 155.95 154.87 156.68C157.79 157.78 158.16 140.78 158.16 140.78C158.16 140.78 162.29 145.54 166.1 155.9C165.93 157.27 165.82 158.28 165.79 158.65C165.64 160.44 164.21 161.54 164.21 161.54C156.98 158.56 152.69 158.62 152.69 158.62C152.44 158.5 151.36 158.26 151.87 156.34C152 155.86 152.33 154.44 152.76 152.59H152.75Z" fill="#1D8D74"/>
<path fill-rule="evenodd" clip-rule="evenodd" d="M152.39 161.39C152.39 161.39 153.26 162.83 157.52 163.27C161.78 163.71 163.2 164.66 163.67 163.74C164.15 162.83 160.65 161.88 157.39 161.25C154.13 160.62 152.21 160.6 152.39 161.39Z" fill="#080C0F"/>
<path fill-rule="evenodd" clip-rule="evenodd" d="M163.25 163.58L160.89 174.75C160.28 177.64 157.44 179.49 154.55 178.88C151.66 178.27 149.81 175.42 150.42 172.53L152.85 161.05C152.87 160.97 152.89 160.9 152.91 160.83C153.3 160.68 154.25 160.61 156.45 161C159.69 161.57 162.59 163.39 162.82 163.56C162.98 163.67 163.13 163.64 163.26 163.58H163.25Z" fill="#EEB393"/>
<path fill-rule="evenodd" clip-rule="evenodd" d="M152.42 164.21L153.02 161.39C153.04 161.31 153.06 161.24 153.08 161.17C153.47 161.02 154.41 160.95 156.62 161.34C159.86 161.91 162.76 163.73 162.98 163.9C163.14 164.02 163.29 163.98 163.42 163.92L161.99 170.66C161.01 168.23 158.95 165.14 156.46 163.9C154.75 163.05 153.36 163.55 152.41 164.22L152.42 164.21Z" fill="#DF8260"/>
<path fill-rule="evenodd" clip-rule="evenodd" d="M152.37 161.16C152.37 161.16 152.62 158.77 152.66 158.55C152.7 158.34 152.88 158.18 153.37 158.16C153.86 158.14 155.2 157.99 158.75 158.79C162.3 159.59 164.02 161.03 164.18 161.5C164.35 161.96 163.77 163.75 163.6 163.83C163.42 163.91 163.21 164.06 162.98 163.89C162.75 163.72 159.86 161.9 156.61 161.33C153.37 160.76 152.85 161.18 152.81 161.38C152.77 161.58 152.3 161.56 152.36 161.16H152.37Z" fill="#202C3A"/>
<path fill-rule="evenodd" clip-rule="evenodd" d="M160.93 132.94L185.79 129.65C185.79 129.65 190.68 129.18 192.6 133.04C194.2 136.25 194.33 142.05 194.54 144.48C194.95 149.26 195.91 198.54 195.91 198.54C195.91 198.54 195.77 199.53 195.37 200.33C194.96 201.13 194.76 201.39 194.71 201.28C194.66 201.17 193.79 193.11 191.88 188.59C191.88 188.59 191.94 191.73 191.93 195.54C191.93 199.35 191 201.49 190.64 201.28C190.28 201.07 191.78 197.25 184.99 195.62C178.2 193.99 174.02 199.87 170.5 199.57C166.97 199.27 165.19 195.22 161.99 194.36C158.78 193.5 157.55 194.04 157.7 193.83C157.85 193.62 161.39 185.84 161.82 185.12C163.04 183.08 162.68 181.08 162.6 180.43C162.52 179.78 160.72 171.78 158.59 166.1C156.46 160.42 156.49 158.13 156.74 151.56C156.99 145 156.97 141.13 156.97 141.13C156.97 141.13 156.46 133.53 160.92 132.94H160.93Z" fill="#0EB891"/>
<path d="M156.96 140.25L156.67 158.47" stroke="#0D5747" stroke-width="1.13" stroke-linecap="round" stroke-linejoin="round"/>
<path fill-rule="evenodd" clip-rule="evenodd" d="M158.3 193.86C157.83 193.88 157.64 193.92 157.71 193.84C157.86 193.63 160.89 185.73 161.17 184.94C162.07 182.43 162.04 180.9 161.95 180.25C161.86 179.6 160.74 171.78 158.6 166.11C158.1 164.78 157.72 163.63 157.43 162.57C158.11 164.72 160.48 169.78 168.28 172.49C178.35 176 188.02 177.49 179.96 180.96C172.08 184.35 161.07 189.44 158.3 193.87V193.86Z" fill="#1D8D74"/>
<path fill-rule="evenodd" clip-rule="evenodd" d="M194.09 145.89C194.53 151.74 194.84 159.17 193.93 162.44C192.33 168.24 189.33 166.04 187.15 167.95C184.98 169.86 184.57 173.42 180.98 171.43C177.39 169.43 191.88 141.67 191.88 141.67L192.95 138.82C193.28 139.96 193.43 140.99 193.6 142.22L194.08 145.88L194.09 145.89Z" fill="#1D8D74"/>
<path fill-rule="evenodd" clip-rule="evenodd" d="M162.06 132.79L178.48 130.62C179.88 131.77 181.44 133.46 182.47 135.8C184.71 140.88 182.67 146.9 181.09 147.34C179.51 147.78 178.23 143.37 176.71 141.59C175.19 139.82 175.46 148.43 172.89 149.78C170.32 151.13 168.24 144.9 167.01 143.85C165.78 142.8 165.24 146.96 164.22 147.64C163.2 148.32 161.71 146.79 160.75 141.64C160.04 137.87 161.33 134.38 162.06 132.79Z" fill="#1D8D74"/>
<path fill-rule="evenodd" clip-rule="evenodd" d="M155.51 126.25C155.51 126.25 156.23 133.03 163.34 135.19C170.45 137.35 174.7 130.97 174.7 130.97C174.7 130.97 173.78 132.88 175.66 133C177.55 133.12 187.57 129.5 191.56 132.96C195.55 136.42 184.79 115.56 184.75 109.67C184.71 103.36 182.37 99.6601 175.39 97.7701C168.41 95.8801 163.65 97.7801 162.66 100.88C162.66 100.88 160.07 98.2901 157.75 104.83C154.58 113.79 151.94 114.22 151.71 119.19C151.45 124.62 154.9 129.25 155.5 126.26L155.51 126.25Z" fill="#080C0F"/>
<path d="M182.92 157.7C183.3 158.35 184.11 160.54 184.47 161.55C184.41 162.27 184.47 163.19 183.27 163.44C182.07 163.69 180.94 163.01 180.31 161.22C179.8 159.78 179.3 158.45 179.12 157.96C178.61 157.67 177.41 156.84 176.74 155.84C175.9 154.59 176.79 153.48 177.8 154.29C178.81 155.09 182.45 156.88 182.93 157.7H182.92Z" fill="#EEB393"/>
<path fill-rule="evenodd" clip-rule="evenodd" d="M177.98 155.25C177.64 155.45 177.22 155.63 176.91 155.67C175.2 155.9 169.41 156.11 165.29 149.27C160.41 141.16 169.55 139.54 171.76 139.68C171.76 139.68 172.48 139.97 171.64 140.14C170.79 140.31 166.88 140.13 166.66 142.83C166.44 145.48 168.71 153.35 180.36 153.41C180.62 153.41 180.72 153.65 180.41 153.83L177.98 155.24V155.25Z" fill="#FD453B"/>
<path fill-rule="evenodd" clip-rule="evenodd" d="M179.74 154.22C179.74 154.22 179.28 153.69 179.52 152.8C179.82 151.69 179.73 150.24 178.36 146.06C176.45 140.19 175.57 135.75 177.87 134.37C179.52 133.38 181.43 133.3 182.1 133.38C182.36 133.41 182.45 133.65 182.25 133.68C181.53 133.8 180.47 133.36 179.96 134.62C179.46 135.88 178.96 137.3 181.1 143.69C182.87 149 182.46 153.06 181.96 153.92C181.81 154.18 181.61 154.49 181.22 154.57C180.65 154.68 179.73 154.21 179.73 154.21L179.74 154.22Z" fill="#E6574F"/>
<path fill-rule="evenodd" clip-rule="evenodd" d="M179.43 153.98C179.4 154.07 179.31 154.11 179.22 154.09C179.13 154.06 179.09 153.97 179.12 153.88C179.12 153.88 179.94 151.39 178.21 146.12C177.15 142.89 176.32 139.83 176.34 137.59C176.35 136.03 176.78 134.86 177.78 134.25C177.86 134.2 177.96 134.23 178.01 134.31C178.06 134.39 178.03 134.49 177.95 134.54C177.04 135.09 176.69 136.18 176.67 137.6C176.65 139.82 177.48 142.84 178.52 146.03C180.29 151.44 179.43 154 179.43 154V153.98Z" fill="#FFA1B0"/>
<path fill-rule="evenodd" clip-rule="evenodd" d="M172.03 127.03C168.19 128.02 164.31 128.91 161.9 137.23C159.49 145.55 161.46 147.2 161.93 147.1C162.4 147 162.61 146.65 163.38 145.53C164.15 144.4 165.77 142.09 166.59 142.36C167.41 142.64 167.73 144.89 169.33 147.39C170.93 149.89 172.07 150.65 174.18 147.85C176.29 145.05 176.79 141.84 177.59 141.8C178.39 141.75 179.92 145.09 180.3 146.36C180.68 147.63 181.14 147.52 181.51 147.06C181.88 146.6 184.15 140.36 182.5 133.86C180.86 127.36 176.06 126 172.03 127.04V127.03Z" fill="#202C3A"/>
<path fill-rule="evenodd" clip-rule="evenodd" d="M167.56 138.8L165.97 123.12L174.38 122.27L175.97 138.01C176.25 142.2 173.53 147.97 171.93 147.99C170.33 148.01 167.84 141.39 167.56 138.86C167.56 138.84 167.56 138.82 167.56 138.8Z" fill="#EEB393"/>
<path fill-rule="evenodd" clip-rule="evenodd" d="M175.79 140.81C175.16 144.38 173.2 147.97 171.93 147.98C170.33 148 167.84 141.38 167.56 138.85C167.56 138.83 167.56 138.81 167.56 138.79L165.97 123.11L173.75 122.32C173.13 124.44 171.6 129.53 169.74 134.88C167.61 141.02 171.92 145.01 172.89 144.98C173.59 144.97 174.42 144.69 175.78 140.79L175.79 140.81Z" fill="#DF8260"/>
<path fill-rule="evenodd" clip-rule="evenodd" d="M191.27 162.65C191.27 162.65 191.83 163.72 199.01 161.81C206.19 159.91 205.49 159.52 205.47 159.31C205.44 159.1 205.05 158.74 205.05 158.74C205.05 158.74 199.05 157.87 198.59 158.05C198.13 158.23 192.97 159.95 192.97 159.95C192.97 159.95 191.06 161.07 191.27 162.64V162.65Z" fill="#080C0F"/>
<path fill-rule="evenodd" clip-rule="evenodd" d="M183.26 138.88C182.59 136.29 183.49 133.43 185.76 131.73C188.76 129.48 193.03 130.08 195.28 133.09C195.6 133.52 195.87 133.98 196.08 134.46C196.08 134.46 204.52 153.35 204.56 154.76C204.6 156.17 203.99 156.84 203.99 156.84L191 159.81C191 159.81 190.15 160.04 189.07 158.84C187.99 157.64 183.27 138.9 183.27 138.9L183.26 138.88Z" fill="#0EB891"/>
<path d="M183.93 141.5C183.93 141.5 187.78 156.72 189.03 158.78C189.47 159.5 190.2 159.68 190.2 159.68" stroke="#1D8D74" stroke-width="1.13" stroke-linecap="round" stroke-linejoin="round"/>
<path fill-rule="evenodd" clip-rule="evenodd" d="M191.63 162.23C191.63 162.23 191.66 162.56 191.48 162.63C191.3 162.7 191.08 162.69 190.98 162.23C190.88 161.77 190.25 159.93 190.22 159.8C190.19 159.67 190.14 159.43 190.59 159.13C191.05 158.83 193.17 157.36 196.16 156.6C199.15 155.84 202.93 156.13 203.72 156.33C204.51 156.53 204.56 156.58 204.71 156.97C204.86 157.36 205.65 159.25 205.44 159.53C205.22 159.81 204.84 159.81 204.68 159.42C204.52 159.04 203.34 159.08 202 158.84C200.65 158.6 197.16 158.46 194.77 159.78C192.39 161.1 191.63 162.23 191.63 162.23Z" fill="#202C3A"/>
<path fill-rule="evenodd" clip-rule="evenodd" d="M202.38 159.34L206.21 173.85C207.06 176.78 205.36 179.85 202.43 180.7C199.5 181.55 196.43 179.85 195.58 176.92L191.87 162.83V162.79C191.87 162.79 192.58 161.63 194.91 160.22C197.24 158.81 200.72 159.11 202.07 159.3C202.18 159.31 202.28 159.33 202.38 159.33V159.34Z" fill="#EEB393"/>
<path fill-rule="evenodd" clip-rule="evenodd" d="M192.33 164.44L191.86 162.83V162.79C191.86 162.79 192.57 161.63 194.9 160.22C197.23 158.81 200.7 159.11 202.06 159.3C202.16 159.31 202.27 159.33 202.37 159.33L204.16 165.52C202.73 164.23 200.72 162.75 198.62 162.28C194.65 161.38 192.33 164.44 192.33 164.44Z" fill="#DF8260"/>
<path fill-rule="evenodd" clip-rule="evenodd" d="M148.27 176.18C142.82 173.08 139.44 171.42 138.5 168.06C138.26 167.19 138.32 166.24 138.39 165.07C138.72 159.41 142.4 156.5 146.12 160.36C149.84 164.22 151.95 163.19 154.46 168.1C156.97 173.01 158.28 181.9 148.27 176.19V176.18Z" fill="#EEB393"/>
<path fill-rule="evenodd" clip-rule="evenodd" d="M152.75 171.41C152.75 171.41 151.61 165.52 149.44 161.34C147.27 157.16 146.87 155.27 145.95 156.97C145.03 158.67 145.57 160.95 147.11 163.43C147.11 163.43 145.96 172.58 152.74 171.41H152.75Z" fill="#DF8260"/>
<path fill-rule="evenodd" clip-rule="evenodd" d="M138.18 164.96C138.18 164.84 138.18 164.72 138.19 164.6C138.36 159.48 141.32 156.91 144.45 160.48C147.58 164.05 149.3 163.15 151.45 167.65C151.98 168.75 152.45 170.06 152.74 171.34C150.78 172.29 147.3 170.93 144.06 166.18C143.01 164.63 139.89 164.84 138.18 164.96Z" fill="#DF8260"/>
<path d="M133.83 147.98L171.33 144.21L175.15 159.17L174.22 173.13L157.87 173.92L141.53 174.71C141.53 174.71 141.45 162.82 140.15 157.57C138.9 152.51 133.82 147.98 133.82 147.98H133.83Z" fill="white"/>
<path d="M142.07 174.13C142.07 173.8 142.06 173.33 142.04 172.75C142.01 171.55 141.96 169.89 141.87 168.07C141.69 164.45 141.34 160.11 140.68 157.43C140.03 154.78 138.38 152.31 136.94 150.52C136.23 149.64 135.55 148.91 135.05 148.4L170.9 144.79L174.59 159.2L173.7 172.58L157.85 173.35L142.07 174.11V174.13Z" stroke="#FF821F" stroke-width="1.1"/>
<path d="M142.07 174.13C142.07 173.8 142.06 173.33 142.04 172.75C142.01 171.55 141.96 169.89 141.87 168.07C141.69 164.45 141.34 160.11 140.68 157.43C140.03 154.78 138.38 152.31 136.94 150.52C136.23 149.64 135.55 148.91 135.05 148.4L170.9 144.79L174.59 159.2L173.7 172.58L157.85 173.35L142.07 174.11V174.13Z" stroke="black" stroke-width="1.1"/>
<path d="M147.46 161.68L164.38 160.26" stroke="#0EB891" stroke-linecap="round"/>
<path d="M151.65 163.74L161.36 163.22" stroke="#0EB891" stroke-linecap="round"/>
<path d="M144.25 171.16L149.11 170.86" stroke="#0EB891" stroke-linecap="round"/>
<path d="M164.73 170.26L169.59 169.96" stroke="#0EB891" stroke-linecap="round"/>
<path d="M145.54 152.79C145.21 152.82 144.97 152.8 144.83 152.76C144.69 152.71 144.6 152.63 144.57 152.54C144.54 152.45 144.52 152.36 144.52 152.26C144.52 152.14 144.57 152.01 144.68 151.86C144.8 151.71 144.98 151.61 145.23 151.54C145.58 151.43 145.96 151.34 146.37 151.27C146.78 151.2 147.18 151.14 147.58 151.11C147.98 151.07 148.33 151.03 148.63 151.01C148.93 150.99 149.16 151.02 149.32 151.1C149.48 151.17 149.59 151.26 149.65 151.37C149.71 151.47 149.75 151.56 149.75 151.64C149.75 151.74 149.72 151.86 149.64 151.99C149.57 152.11 149.4 152.19 149.13 152.21C149.03 152.21 148.89 152.23 148.72 152.26C148.54 152.29 148.35 152.32 148.13 152.36C148.13 152.68 148.1 153.09 148.05 153.58C148 154.07 147.93 154.6 147.82 155.18C147.72 155.75 147.58 156.33 147.39 156.91C147.22 157.49 146.99 158.04 146.71 158.56C146.44 159.07 146.12 159.52 145.74 159.91C145.37 160.29 144.93 160.57 144.42 160.74C144.32 160.77 144.23 160.8 144.15 160.82C144.08 160.85 143.99 160.86 143.89 160.87C143.7 160.88 143.54 160.86 143.41 160.79C143.28 160.72 143.2 160.61 143.16 160.45C143.12 160.26 143.14 160.08 143.21 159.9C143.28 159.73 143.41 159.61 143.61 159.53C144.08 159.33 144.49 159.08 144.82 158.75C145.16 158.42 145.45 157.99 145.69 157.47C145.93 156.94 146.13 156.28 146.28 155.49C146.44 154.7 146.57 153.73 146.66 152.61C146.44 152.65 146.23 152.68 146.03 152.71C145.83 152.74 145.67 152.76 145.53 152.77L145.54 152.79ZM153.42 158.47C153.24 158.48 153.05 158.46 152.84 158.39C152.63 158.31 152.43 158.17 152.24 157.97C152.05 157.77 151.89 157.48 151.75 157.11C151.62 156.74 151.54 156.26 151.52 155.68C151.5 155.25 151.54 154.8 151.64 154.35C151.74 153.89 151.91 153.45 152.14 153.03C152.37 152.61 152.68 152.24 153.06 151.91C153.45 151.58 153.92 151.34 154.47 151.18C154.7 151.11 154.96 151.04 155.25 150.97C155.55 150.89 155.85 150.82 156.16 150.76C156.47 150.69 156.76 150.63 157.03 150.58C157.31 150.53 157.54 150.5 157.74 150.49C158.05 150.46 158.29 150.49 158.45 150.56C158.61 150.63 158.72 150.72 158.78 150.83C158.84 150.93 158.87 151.02 158.87 151.11C158.87 151.21 158.84 151.32 158.78 151.43C158.72 151.54 158.56 151.62 158.3 151.67C158.24 151.68 158.12 151.71 157.93 151.75C157.74 151.79 157.51 151.83 157.25 151.89C156.99 151.95 156.71 152.01 156.42 152.08C156.13 152.14 155.85 152.21 155.58 152.27C155.31 152.33 155.08 152.39 154.89 152.43C154.46 152.54 154.12 152.7 153.85 152.91C153.59 153.11 153.39 153.33 153.25 153.59C153.12 153.84 153.02 154.11 152.97 154.38C153.23 154.3 153.5 154.22 153.78 154.14C154.06 154.06 154.32 153.99 154.57 153.92C154.82 153.85 155.04 153.8 155.22 153.76C155.4 153.72 155.53 153.7 155.59 153.69C155.85 153.67 156 153.69 156.06 153.75C156.12 153.81 156.16 153.91 156.16 154.05C156.16 154.17 156.06 154.33 155.84 154.51C155.62 154.69 155.28 154.87 154.8 155.08C154.32 155.28 153.69 155.48 152.91 155.66C152.91 155.8 152.9 155.95 152.9 156.12C152.9 156.29 152.9 156.45 152.9 156.61C152.9 156.77 152.92 156.91 152.94 157.01C152.96 157.11 153 157.16 153.05 157.16C153.19 157.15 153.39 157.1 153.65 157.02C153.91 156.94 154.17 156.85 154.45 156.74C154.73 156.63 154.99 156.53 155.23 156.43C155.47 156.33 155.64 156.25 155.75 156.19C155.91 156.11 156.07 156.03 156.23 155.95C156.4 155.87 156.53 155.83 156.63 155.82C156.73 155.82 156.81 155.84 156.89 155.92C156.96 155.99 156.99 156.1 156.97 156.25C156.97 156.32 156.9 156.43 156.78 156.59C156.66 156.74 156.49 156.92 156.28 157.12C156.07 157.31 155.82 157.51 155.52 157.7C155.23 157.89 154.91 158.05 154.55 158.19C154.2 158.32 153.83 158.4 153.43 158.44L153.42 158.47ZM162.1 157.79C161.92 157.8 161.73 157.78 161.52 157.71C161.31 157.63 161.12 157.49 160.92 157.29C160.73 157.09 160.57 156.8 160.43 156.43C160.3 156.06 160.22 155.58 160.2 155C160.18 154.57 160.22 154.12 160.32 153.67C160.42 153.21 160.59 152.77 160.82 152.35C161.05 151.93 161.36 151.56 161.74 151.23C162.13 150.9 162.6 150.66 163.15 150.5C163.38 150.43 163.64 150.36 163.93 150.29C164.23 150.21 164.53 150.14 164.84 150.08C165.15 150.01 165.44 149.95 165.71 149.9C165.99 149.85 166.23 149.82 166.42 149.81C166.73 149.78 166.97 149.81 167.13 149.88C167.29 149.95 167.4 150.04 167.45 150.15C167.51 150.25 167.54 150.34 167.54 150.43C167.54 150.53 167.51 150.64 167.45 150.75C167.39 150.86 167.23 150.94 166.97 150.99C166.91 151 166.79 151.03 166.6 151.07C166.41 151.11 166.18 151.15 165.92 151.21C165.66 151.27 165.38 151.33 165.09 151.4C164.8 151.46 164.52 151.53 164.25 151.59C163.98 151.65 163.75 151.71 163.56 151.75C163.13 151.86 162.79 152.02 162.52 152.23C162.26 152.43 162.06 152.65 161.92 152.91C161.79 153.16 161.69 153.43 161.64 153.7C161.9 153.62 162.17 153.54 162.45 153.46C162.73 153.38 162.99 153.31 163.24 153.24C163.49 153.17 163.71 153.12 163.89 153.08C164.07 153.04 164.2 153.02 164.26 153.01C164.52 152.99 164.67 153.01 164.73 153.07C164.79 153.13 164.83 153.23 164.83 153.37C164.83 153.49 164.73 153.65 164.51 153.83C164.29 154.01 163.95 154.19 163.47 154.4C162.99 154.6 162.36 154.8 161.58 154.98V154.99C161.58 155.12 161.57 155.27 161.57 155.45C161.57 155.61 161.57 155.78 161.57 155.94C161.57 156.1 161.59 156.24 161.61 156.34C161.63 156.44 161.67 156.49 161.72 156.49C161.86 156.48 162.06 156.43 162.32 156.35C162.57 156.27 162.84 156.18 163.12 156.07C163.4 155.96 163.66 155.86 163.9 155.76C164.14 155.66 164.31 155.58 164.42 155.52C164.58 155.44 164.74 155.36 164.9 155.28C165.07 155.2 165.2 155.16 165.3 155.15C165.4 155.15 165.48 155.17 165.56 155.25C165.63 155.32 165.66 155.43 165.64 155.58C165.64 155.65 165.57 155.76 165.45 155.92C165.33 156.07 165.16 156.25 164.95 156.45C164.74 156.64 164.49 156.84 164.19 157.03C163.9 157.22 163.58 157.38 163.22 157.52C162.87 157.65 162.5 157.74 162.1 157.77V157.79Z" fill="#5352C3"/>
<path fill-rule="evenodd" clip-rule="evenodd" d="M138.37 167.42C138.37 167.42 136.66 162.2 137.64 161.44C138.63 160.68 144.49 159.25 145.4 158.96C146.32 158.67 146.44 161 144.55 161.5C144.55 161.5 146.47 160.7 145.7 162.55C144.96 164.32 143.19 164.2 140.82 165.5C139.59 166.18 138.36 167.41 138.36 167.41L138.37 167.42Z" fill="#EEB393"/>
<path fill-rule="evenodd" clip-rule="evenodd" d="M137.69 162.28C137.69 162.28 136.99 159.64 137.95 158.8C138.85 158.01 144.31 156.66 144.86 157.01C145.42 157.36 145.01 159.28 143.66 159.97C142.31 160.65 137.7 162.28 137.7 162.28H137.69Z" fill="#EEB393"/>
<path d="M145.05 158.02C145.05 158.02 145.2 157.27 144.84 157.02C144.48 156.76 141.07 157.5 139.47 158.09C137.87 158.68 137.57 158.87 137.47 159.84C137.36 160.8 137.53 161.55 137.53 161.55" stroke="#DF8260" stroke-width="0.5" stroke-linecap="round" stroke-linejoin="round"/>
<path d="M144.55 161.51C144.55 161.51 145.57 161.28 145.88 160.43C146.19 159.58 146.04 158.82 145.39 158.97C144.75 159.12 141.04 160.15 139.71 160.59C138.38 161.03 137.62 161.3 137.44 161.72C137.26 162.14 137.32 162.99 137.4 163.49" stroke="#DF8260" stroke-width="0.75" stroke-linecap="round" stroke-linejoin="round"/>
<path d="M140.46 166.55C140.46 166.55 140.07 166.61 140.73 165.1C140.96 164.56 143.28 164.81 144.85 163.62C145.68 162.99 146.01 162 145.81 161.55C145.61 161.1 144.52 161.48 143.64 161.73C142.9 161.93 140.4 162.52 139.67 162.76C138.94 162.99 137.93 163.39 138.16 165.76C138.39 168.13 138.86 169.32 141.07 171.19" stroke="#DF8260" stroke-width="0.75" stroke-linecap="round" stroke-linejoin="round"/>
<path fill-rule="evenodd" clip-rule="evenodd" d="M180.35 166.97C178.73 165.98 178.22 163.87 179.19 162.25C180.04 160.83 181.77 160.24 183.27 160.77C183.43 160.83 183.59 160.89 183.75 160.98L202.33 170.75C202.71 170.87 203.07 171.04 203.43 171.25C206.02 172.81 206.86 176.18 205.3 178.77C203.74 181.36 200.37 182.2 197.78 180.64L180.34 166.97H180.35Z" fill="#EEB393"/>
<path fill-rule="evenodd" clip-rule="evenodd" d="M159.37 118.49C159.37 118.49 157.4 117.76 157.04 115.14C156.68 112.51 157.78 110.76 159.52 112.67C161.63 114.98 159.36 118.49 159.36 118.49H159.37Z" fill="#DF8260"/>
<path d="M158.23 118.5C158.561 118.5 158.83 118.231 158.83 117.9C158.83 117.569 158.561 117.3 158.23 117.3C157.899 117.3 157.63 117.569 157.63 117.9C157.63 118.231 157.899 118.5 158.23 118.5Z" fill="#F9FFE3"/>
<path d="M157.64 112.74C157.64 112.74 158.8 112.98 159.03 115.48" stroke="#D15844" stroke-width="1.13" stroke-linecap="round" stroke-linejoin="round"/>
<path fill-rule="evenodd" clip-rule="evenodd" d="M176.6 116.35C176.6 116.35 182.11 115.89 181.05 120.09C180.14 123.74 176.04 124.1 174.48 123.29L174.46 123.31C173.45 124.44 171.01 126.36 168.82 127.72C166.44 129.2 164.72 129.1 163.36 127.26C162 125.42 157.64 122.11 158.3 115.82C158.97 109.53 161.37 104.59 161.37 104.59C161.37 104.59 164.28 102.89 168.18 103.22C172.73 103.6 174.57 106.59 174.57 106.59C174.19 114.1 176.59 116.34 176.59 116.34L176.6 116.35Z" fill="#EEB393"/>
<path fill-rule="evenodd" clip-rule="evenodd" d="M159.23 111.21C160.08 107.01 161.38 104.6 161.38 104.6C161.38 104.6 162.82 103.76 165.05 103.37C160.48 105.11 159.24 111.21 159.24 111.21H159.23ZM172.82 104.85C174.04 105.72 174.58 106.6 174.58 106.6C174.2 114.11 176.6 116.35 176.6 116.35C176.6 116.35 176.64 116.35 176.72 116.35C175.05 116.55 174.18 118.5 174.06 112.64C173.99 109.3 174.01 106.57 172.81 104.86L172.82 104.85Z" fill="#DF8260"/>
<path fill-rule="evenodd" clip-rule="evenodd" d="M164.85 115.71C164.03 116.03 163.12 116.5 163.05 116.87C162.98 117.24 163.34 117.84 164.48 118.26C164.43 117.27 164.55 116.43 164.85 115.72V115.71Z" fill="#F4CEB2"/>
<path fill-rule="evenodd" clip-rule="evenodd" d="M161.88 119.34C162.93 119.03 163.88 120.53 165.29 120.61C166.7 120.69 168.88 120.03 169.45 120.85C170.02 121.67 168.85 123.53 167.09 123.92C165.33 124.31 163.35 123.76 162.24 122.28C161.13 120.8 161.2 119.54 161.88 119.34Z" fill="#131D29"/>
<path fill-rule="evenodd" clip-rule="evenodd" d="M162.42 122.5C163.17 121.74 165.32 120.15 169.57 121.12C169.78 122.02 168.68 123.56 167.09 123.91C165.42 124.28 163.55 123.8 162.42 122.49V122.5Z" fill="#CF4950"/>
<path d="M163.02 124.53C163.02 124.53 164.9 126.05 167.08 125.14" stroke="#DF8260" stroke-width="1.13" stroke-linecap="round" stroke-linejoin="round"/>
<path fill-rule="evenodd" clip-rule="evenodd" d="M162.28 119.3C163.18 119.38 164.06 120.54 165.29 120.61C166.36 120.67 167.88 120.3 168.8 120.48C168.5 120.96 167.88 121.79 166.98 122.01C165.7 122.32 163.42 121.46 162.94 121.08C162.61 120.82 162.38 119.86 162.27 119.3H162.28Z" fill="#E6FEFE"/>
<path d="M174.99 120.64C174.99 120.64 175.69 118.47 177.5 118.05C179.31 117.63 180.23 118.93 179.9 119.96" stroke="#DF8260" stroke-width="1.13" stroke-linecap="round" stroke-linejoin="round"/>
<path d="M175.73 123.21C176.061 123.21 176.33 122.941 176.33 122.61C176.33 122.279 176.061 122.01 175.73 122.01C175.399 122.01 175.13 122.279 175.13 122.61C175.13 122.941 175.399 123.21 175.73 123.21Z" fill="#F9FFE3"/>
<path fill-rule="evenodd" clip-rule="evenodd" d="M161.06 109.7C160.96 109.51 161.73 108.86 162.82 108.67C163.9 108.48 165.02 109.59 165.02 109.59C165.02 109.59 164.89 110.42 164.4 110.27C163.9 110.13 163.05 109.33 162.38 109.45C161.7 109.57 161.24 110.03 161.07 109.71L161.06 109.7Z" fill="#121D29"/>
<path fill-rule="evenodd" clip-rule="evenodd" d="M168.24 110.19C168.24 110.19 169.27 109.5 170.51 109.57C171.75 109.64 173 110.94 172.72 111.1C172.44 111.26 171.93 110.43 171.12 110.47C170.32 110.52 169.43 110.93 168.85 110.99C168.22 111.06 168.24 110.19 168.24 110.19Z" fill="#121D29"/>
<path fill-rule="evenodd" clip-rule="evenodd" d="M159.31 112.17C159.31 112.17 160.12 113.25 160.47 113.27C160.82 113.29 160.7 112.48 161.99 112.2C162.89 112.01 163.8 112.5 164.08 112.96C164.36 113.42 164.65 113.38 164.73 113.21C164.82 113.04 164.55 112.64 163.84 112.02C163.12 111.4 162.32 111.09 161.47 111.38C160.63 111.66 160.8 112.09 160.21 112.28C159.8 112.42 159.32 112.16 159.32 112.16L159.31 112.17Z" fill="#121D29"/>
<path fill-rule="evenodd" clip-rule="evenodd" d="M167.11 112.84C167.11 112.84 167.82 114.22 168.23 114.31C168.63 114.4 169.32 113.53 170.58 114.05C171.84 114.57 171.96 115 172.17 115.36C172.37 115.73 172.63 115.43 172.58 115.13C172.54 114.88 172.32 114.2 171.62 113.6C170.79 112.89 169.45 112.56 168.78 113.03C168.11 113.49 167.74 113.24 167.12 112.84H167.11Z" fill="#121D29"/>
<path fill-rule="evenodd" clip-rule="evenodd" d="M178.43 154.5C178.43 154.5 177.97 153.62 178.22 152.74C178.54 151.63 178.5 150.97 177.17 146.78C175.31 140.9 168.63 143.41 170.94 142.06C171.12 141.61 174.06 141.76 175.75 141.57C176.62 141.47 177.93 142.23 179.31 144.86C181.38 148.79 179.94 156 182.02 153.79C181.87 154.05 181.6 154.75 180.7 154.57C179.95 154.52 179.02 154.44 179.02 154.44L178.42 154.51L178.43 154.5Z" fill="#FC6C64"/>
<path d="M180.54 152.31C180.45 148 177.37 144.57 173.65 144.66C169.93 144.75 166.99 148.31 167.08 152.63C167.17 156.94 170.25 160.37 173.97 160.28C177.69 160.19 180.63 156.63 180.54 152.32V152.31Z" fill="#FF821F"/>
<path d="M178.04 152.12C177.95 147.95 174.97 144.63 171.37 144.72C167.77 144.8 164.92 148.26 165.01 152.43C165.1 156.6 168.08 159.92 171.68 159.83C175.28 159.75 178.13 156.29 178.04 152.12Z" fill="#FFCD2F"/>
<path fill-rule="evenodd" clip-rule="evenodd" d="M171.02 147.55C171.66 147.44 172.86 150.18 172.86 150.18C172.86 150.18 175.87 150.05 176.05 150.71C176.23 151.36 173.78 152.92 173.78 152.92C173.78 152.92 174.62 155.9 174.17 156C173.72 156.09 171.47 154.54 171.47 154.54C171.47 154.54 169.08 156.56 168.59 156.25C168.27 156.05 168.77 153.08 168.77 153.08C168.77 153.08 166.21 151.91 166.43 151.39C166.65 150.86 169.76 150.62 169.76 150.62C169.76 150.62 170.36 147.68 171.01 147.57L171.02 147.55Z" fill="#FF821F"/>
<path fill-rule="evenodd" clip-rule="evenodd" d="M171.1 147.81C171.1 147.81 171.08 147.81 171.08 147.82C171.06 147.83 171.04 147.85 171.03 147.87C170.94 147.96 170.86 148.1 170.78 148.27C170.36 149.14 170.04 150.66 170.04 150.66C170.02 150.77 169.92 150.86 169.8 150.87C169.8 150.87 168.24 151.02 167.27 151.26C167.05 151.32 166.81 151.42 166.71 151.46C166.71 151.47 166.73 151.49 166.74 151.5C166.81 151.59 166.91 151.68 167.04 151.78C167.7 152.29 168.9 152.82 168.9 152.82C169.01 152.87 169.07 152.99 169.05 153.11C168.79 154.6 168.74 155.4 168.76 155.83C168.76 156.01 168.8 156.13 168.81 156.16C168.88 156.23 168.91 156.33 168.88 156.43C168.84 156.57 168.69 156.65 168.73 156.6C168.73 156.6 168.62 156.67 168.47 156.57C168.44 156.55 168.32 156.48 168.26 156.16C168.2 155.82 168.18 155.04 168.49 153.22C168.11 153.04 167.25 152.62 166.71 152.2C166.5 152.04 166.34 151.88 166.26 151.73C166.17 151.58 166.15 151.43 166.18 151.3C166.2 151.23 166.24 151.16 166.31 151.09C166.39 151.01 166.54 150.93 166.74 150.86C167.48 150.6 169.02 150.42 169.56 150.36C169.66 149.91 169.94 148.76 170.3 148.04C170.43 147.77 170.58 147.56 170.72 147.43C170.87 147.3 171.03 147.26 171.19 147.28C171.33 147.31 171.43 147.44 171.41 147.59C171.38 147.73 171.25 147.83 171.11 147.81H171.1Z" fill="white"/>
<path fill-rule="evenodd" clip-rule="evenodd" d="M177.78 152.13C177.78 151.98 177.89 151.86 178.04 151.86C178.19 151.86 178.31 151.97 178.31 152.12C178.36 153.63 177.92 156.53 175.49 158.65C174.61 159.41 173.66 159.79 172.8 159.96C173.18 160 173.57 160.02 173.98 160.02C174.06 160.02 175.94 159.97 177.64 158.6C178.81 157.65 179.88 156.08 180.24 153.48C180.62 150.7 179.38 148.18 178.24 146.99C178.14 146.88 178.14 146.72 178.24 146.61C178.35 146.51 178.52 146.51 178.62 146.61C179.84 147.88 181.17 150.57 180.76 153.54C180.38 156.32 179.22 157.99 177.97 159C176.08 160.53 173.98 160.54 173.98 160.54C172.42 160.53 171.12 160.26 169.96 159.87C169.82 159.82 169.75 159.68 169.79 159.54C169.83 159.4 169.98 159.32 170.12 159.37C170.12 159.37 172.9 160.19 175.14 158.24C177.42 156.26 177.82 153.54 177.78 152.13Z" fill="#FFE72A"/>
<path fill-rule="evenodd" clip-rule="evenodd" d="M168.07 145.03C167.97 145.04 167.6 145.08 167.22 144.98C166.74 144.86 166.26 144.53 166.25 143.74C166.25 143.28 166.38 142.96 166.57 142.74C166.99 142.28 167.66 142.26 167.78 142.26L175.83 141.83C175.83 141.83 175.87 141.83 175.88 141.83C175.88 141.83 177.4 142.02 177.43 143.47C177.44 144.23 176.95 144.61 176.45 144.8C176.02 144.96 175.58 144.96 175.54 144.96L168.07 145.02V145.03ZM168.05 144.5L175.53 144.44H175.54C175.54 144.44 175.91 144.44 176.27 144.31C176.59 144.19 176.92 143.97 176.9 143.49C176.88 142.56 175.98 142.39 175.82 142.36L167.79 142.78H167.77C167.77 142.78 167.26 142.75 166.96 143.08C166.83 143.22 166.75 143.42 166.76 143.72C166.76 144.19 167.06 144.38 167.36 144.46C167.68 144.54 168.01 144.49 168.01 144.49C168.02 144.49 168.03 144.49 168.05 144.49V144.5Z" fill="#FFCD2F"/>
<path fill-rule="evenodd" clip-rule="evenodd" d="M166.47 142.88C166.57 142.78 166.74 142.78 166.85 142.88C166.95 142.98 166.95 143.15 166.76 143.31L166.86 143.24C166.86 143.24 166.76 143.43 166.77 143.73C166.77 143.91 166.81 144.11 166.97 144.25C167.16 144.42 167.49 144.51 168.04 144.49C169.34 144.46 172.88 144.41 172.88 144.41C173.03 144.41 173.15 144.52 173.15 144.67C173.15 144.82 173.03 144.94 172.89 144.94C172.89 144.94 169.35 144.99 168.05 145.02C167.31 145.04 166.87 144.87 166.61 144.64C166.33 144.39 166.23 144.06 166.23 143.73C166.22 143.07 166.47 142.86 166.47 142.86V142.88Z" fill="#FFE72A"/>
<path d="M170.7 142.56C170.95 142.45 171 142.17 170.96 142L176.27 141.75C176.42 141.71 176.69 141.87 176.73 142.39C176.79 143.04 176.47 142.82 176.27 142.94C176.07 143.07 172.71 143.21 171.9 143.21C171.09 143.21 168.54 143.4 168.15 143.28C167.75 143.16 167.66 142.86 167.8 142.71C168.69 142.71 170.45 142.66 170.7 142.55V142.56Z" fill="#FC6C64"/>
</g>
</g>
<defs>
<clipPath id="clip0_22_4666">
<rect width="228" height="318" fill="white"/>
</clipPath>
</defs>
</svg>
