<svg width="248" height="352" viewBox="0 0 248 352" fill="none" xmlns="http://www.w3.org/2000/svg">
<g clip-path="url(#clip0_80_6460)">
<g clip-path="url(#clip1_80_6460)">
<mask id="mask0_80_6460" style="mask-type:luminance" maskUnits="userSpaceOnUse" x="37" y="11" width="174" height="311">
<path d="M194.208 11.9456H53.8143C44.6922 11.9456 37.2974 19.3404 37.2974 28.4625V305.121C37.2974 314.243 44.6922 321.638 53.8143 321.638H194.208C203.331 321.638 210.725 314.243 210.725 305.121V28.4625C210.725 19.3404 203.331 11.9456 194.208 11.9456Z" fill="white"/>
</mask>
<g mask="url(#mask0_80_6460)">
<path d="M197.417 11.863H50.3381C40.7817 11.863 33.0347 19.2579 33.0347 28.38V305.038C33.0347 314.161 40.7817 321.555 50.3381 321.555H197.417C206.973 321.555 214.721 314.161 214.721 305.038V28.38C214.721 19.2579 206.973 11.863 197.417 11.863Z" fill="#C4ACF6"/>
<path fill-rule="evenodd" clip-rule="evenodd" d="M204.738 160.247C204.738 160.247 200.815 162.198 199.494 157.935C197.997 153.103 202.838 152.618 202.838 152.618C202.838 152.618 204.263 146.239 208.805 148.272C213.791 150.502 211.892 155.55 209.703 156.221C209.703 156.221 212.449 159.173 208.95 161.3C205.45 163.426 204.748 160.226 204.748 160.226L204.738 160.247Z" fill="#A9C7FF"/>
<path d="M167.058 85.3323C143.842 0.197883 53.8347 9.97386 29.3896 9.97386L57.4891 -2.65128L98.6265 -12.8298L206.967 -2.65128C214.844 -0.338912 253.968 20.3176 239.96 38.8888C225.951 57.46 182.398 69.4348 176.008 86.953C174.109 87.5001 169.66 87.9337 167.048 85.322L167.058 85.3323Z" fill="#A285E0"/>
<g opacity="0.5">
<path fill-rule="evenodd" clip-rule="evenodd" d="M88.9746 76.4029C94.9 76.4029 99.7106 71.4581 99.7106 65.3675C99.7106 59.2769 94.9 54.3321 88.9746 54.3321C88.9746 54.3321 64.705 53.4753 55.7962 86.6331C46.8771 119.801 56.9421 147.952 56.9421 147.952C57.5615 153.444 62.1036 157.707 67.6058 157.707C73.5313 157.707 78.3418 152.763 78.3418 146.672C78.3418 146.177 78.3109 145.691 78.2489 145.206C78.2489 145.206 77.6811 139.549 72.2202 124.271C64.1889 101.777 72.1583 76.2584 88.5513 76.3719C88.6959 76.3719 88.8404 76.3719 88.9746 76.3719V76.4029Z" fill="#A9C7FF"/>
<path fill-rule="evenodd" clip-rule="evenodd" d="M66.2949 157.646C66.7285 157.697 67.1621 157.728 67.6059 157.728C73.5314 157.728 78.3419 152.783 78.3419 146.693C78.3419 146.197 78.311 145.712 78.249 145.227C78.249 145.227 77.6813 139.57 72.2204 124.292C64.189 101.808 72.1584 76.2791 88.5515 76.3926C88.696 76.3926 88.8405 76.3926 88.9747 76.3926C94.9002 76.3926 99.7107 71.4479 99.7107 65.3572C99.7107 59.2666 94.9002 54.3219 88.9747 54.3219C88.9747 54.3219 88.4276 54.3012 87.4779 54.3838C92.8768 54.9619 97.0887 59.6589 97.0887 65.3572C97.0887 71.4479 92.2781 76.3926 86.3527 76.3926C86.2081 76.3926 86.0636 76.3926 85.9294 76.3926C69.5467 76.2791 61.5773 101.798 69.5983 124.292C75.0489 139.57 75.627 145.227 75.627 145.227C75.6889 145.702 75.7199 146.197 75.7199 146.693C75.7199 152.329 71.601 156.975 66.2949 157.646Z" fill="#6580C7"/>
<path fill-rule="evenodd" clip-rule="evenodd" d="M77.2485 9.60244L80.7481 30.455L97.9153 27.2962L94.4158 6.44358C88.1187 4.11056 82.3894 5.08093 77.2485 9.60244Z" fill="#A9C7FF"/>
<path d="M91.4316 8.98267L92.6188 16.6011" stroke="white" stroke-width="0.887785" stroke-linecap="round" stroke-linejoin="round"/>
<path fill-rule="evenodd" clip-rule="evenodd" d="M63.962 31.0539C63.7039 32.3133 64.7465 35.3173 64.7465 35.3173L79.1782 76.878L108.692 65.8426L93.9918 23.518C93.9918 23.518 93.1969 20.8237 92.2782 20.1527C91.3594 19.4817 89.8729 19.5127 88.4999 19.4714C80.0763 19.2546 72.6953 22.0625 66.326 27.7505C65.2524 28.7002 64.2304 29.7945 63.962 31.0539Z" fill="#3E5DAB"/>
<path d="M88.7686 26.4597L97.8012 52.5771" stroke="white" stroke-width="1.48652" stroke-linecap="round" stroke-linejoin="round"/>
<path d="M103.159 93.6529C90.8951 97.1524 79.1474 93.6735 76.9073 85.8899C74.6672 78.1063 82.8121 68.96 95.0759 65.4708C107.34 61.9713 119.087 65.4502 121.327 73.2338C123.557 81.0174 115.423 90.1637 103.159 93.6529Z" fill="#6580C7"/>
<path d="M104.18 97.1731C91.9168 100.673 80.1691 97.1938 77.929 89.4102C75.6992 81.6266 83.8338 72.4803 96.0976 68.9911C108.361 65.4916 120.109 68.9705 122.349 76.7541C124.579 84.5377 116.444 93.6839 104.18 97.1731Z" fill="#A6E2FB"/>
<path fill-rule="evenodd" clip-rule="evenodd" d="M105.822 80.5528C105.822 80.8625 105.987 81.2547 105.987 81.2547L114.555 95.9341L125.714 89.6577L117.28 75.2054C117.28 75.2054 116.981 74.6686 116.733 74.5034C116.496 74.3486 116.093 74.2454 115.773 74.2454C111.706 74.2763 108.444 76.1345 105.977 79.9127C105.842 80.1192 105.822 80.2431 105.812 80.5528H105.822Z" fill="#A9C7FF"/>
<path fill-rule="evenodd" clip-rule="evenodd" d="M93.4342 91.8666L102.405 107.248L113.564 100.972L105.192 86.6225C105.192 86.6225 104.986 86.1064 104.346 85.7863C103.706 85.4663 103.664 85.5489 103.22 85.5696C99.1222 85.7244 95.8601 87.789 93.4238 91.8666H93.4342Z" fill="#6580C7"/>
<path fill-rule="evenodd" clip-rule="evenodd" d="M81.3568 85.6109C81.2639 86.2303 81.5116 86.7774 81.5116 86.7774L86.1467 102.572L98.4621 99.1133L93.7342 83.0094C93.7342 83.0094 93.5896 82.2868 93.1974 81.9978C92.8051 81.7191 92.2063 81.5539 91.876 81.4816C88.6036 80.7281 85.2279 81.781 82.0588 84.5579C81.7387 84.8366 81.4497 84.9812 81.3568 85.6005V85.6109Z" fill="#A9C7FF"/>
<path d="M113.564 67.5766C113.564 67.5766 109.724 65.3984 102.292 65.9869" stroke="white" stroke-width="0.887785" stroke-linecap="round" stroke-linejoin="round"/>
<path d="M115.722 78.0032L120.151 85.5597" stroke="white" stroke-width="0.887785" stroke-linecap="round" stroke-linejoin="round"/>
<path d="M103.602 89.9778L107.164 96.8633" stroke="white" stroke-width="0.887785" stroke-linecap="round" stroke-linejoin="round"/>
<path d="M91.0083 85.8176L92.598 93.4154" stroke="white" stroke-width="0.887785" stroke-linecap="round" stroke-linejoin="round"/>
<path d="M121.606 95.2631C118.529 96.987 115.391 97.2761 114.596 95.9134C113.801 94.5508 115.639 92.032 118.705 90.2977C121.781 88.5737 124.919 88.2847 125.714 89.6473C126.519 91.0203 124.672 93.5288 121.606 95.2631Z" fill="#62C3CD"/>
<path d="M109.477 106.649C106.4 108.373 103.262 108.662 102.467 107.3C101.673 105.937 103.51 103.418 106.576 101.684C109.652 99.96 112.79 99.6709 113.585 101.034C114.39 102.407 112.543 104.915 109.477 106.649Z" fill="#62C3CD"/>
<path d="M93.1554 103.656C89.7694 104.605 86.6518 104.141 86.2079 102.613C85.7641 101.085 88.1487 99.0826 91.5347 98.1329C94.9206 97.1832 98.0382 97.6477 98.4821 99.1755C98.926 100.703 96.5413 102.706 93.1554 103.656Z" fill="#62C3CD"/>
<path d="M124.754 91.1958C124.754 91.1958 125.642 93.5288 122.143 95.5934C118.643 97.658 116.434 95.8412 116.434 95.8412" stroke="#3E5DAB" stroke-width="0.598738" stroke-linecap="round" stroke-linejoin="round"/>
<path d="M112.636 102.675C112.636 102.675 113.069 105.142 109.786 107.073C106.504 108.993 103.84 107.248 103.84 107.248" stroke="#3E5DAB" stroke-width="0.598738" stroke-linecap="round" stroke-linejoin="round"/>
<path d="M97.1921 100.477C97.1921 100.477 96.5934 103.223 93.0629 104.162C89.5324 105.101 87.6846 102.923 87.6846 102.923" stroke="#3E5DAB" stroke-width="0.598738" stroke-linecap="round" stroke-linejoin="round"/>
<path fill-rule="evenodd" clip-rule="evenodd" d="M147.052 109.23H83.4721C83.4721 109.23 81.7275 109.086 79.9622 109.478C79.157 109.654 77.3298 110.459 77.3298 110.459L44.2031 124.529C42.6959 125.789 42.6753 126.914 44.2031 127.905H104.118C104.118 127.905 106.358 127.936 108.175 127.657C109.269 127.492 111.355 126.625 111.355 126.625L147.062 112.307C148.642 111.078 148.528 110.067 147.062 109.23H147.052Z" fill="#3E5DAB"/>
<path d="M143.728 115.001L77.7429 115.249L50.0874 127.471" stroke="#A6E2FB" stroke-width="0.887785" stroke-linecap="round" stroke-linejoin="round"/>
<path d="M144.678 111.822H80.9849" stroke="white" stroke-width="0.887785" stroke-linecap="round" stroke-linejoin="round"/>
<path fill-rule="evenodd" clip-rule="evenodd" d="M91.7928 129.629C91.0599 131.219 91.6586 132.819 91.6586 132.819L96.0975 159.091L130.091 152.794L125.683 126.687C125.683 126.687 125.559 125.087 124.31 123.817C123.753 123.249 122.752 122.465 121.595 122.227C112.088 120.297 102.942 121.887 94.1465 127.316C93.1142 127.946 92.5154 128.029 91.7928 129.619V129.629Z" fill="#A6E2FB"/>
<path d="M126.592 132.623C126.592 132.623 108.186 126.976 92.6289 139.931" stroke="#6580C7" stroke-width="1.48652" stroke-linecap="round" stroke-linejoin="round"/>
<path d="M128.697 144.835C128.697 144.835 111.241 140.778 94.9204 151.834" stroke="#6580C7" stroke-width="1.48652" stroke-linecap="round" stroke-linejoin="round"/>
<path fill-rule="evenodd" clip-rule="evenodd" d="M77.2681 164.83V172.893H134.231V164.83C134.231 163.344 133.064 162.146 131.619 162.146H79.8901C78.4449 162.146 77.2784 163.354 77.2784 164.83H77.2681Z" fill="#A9C7FF"/>
<path fill-rule="evenodd" clip-rule="evenodd" d="M22.1944 162.146H7.96916C6.52393 162.146 5.35742 163.354 5.35742 164.83V172.893H94.8276V164.83C94.8276 163.344 93.6611 162.146 92.2158 162.146H68.7928C70.7025 158.936 71.7968 155.158 71.7968 151.121C71.7968 139.405 62.5473 129.897 51.1506 129.897C42.6754 129.897 35.3873 135.151 32.2078 142.667L22.1944 162.146Z" fill="#A6E2FB"/>
<path fill-rule="evenodd" clip-rule="evenodd" d="M54.9397 77.7965C57.1282 79.5824 59.8948 80.6457 62.8988 80.6457C69.9701 80.6457 75.7201 74.7409 75.7201 67.4734C75.7201 60.206 69.9805 54.3012 62.8988 54.3012C62.8988 54.3012 42.3043 50.781 27.0261 80.6457C11.748 110.51 20.2955 154.435 35.0781 165.687L44.8747 134.057C44.8747 134.057 36.2962 124.488 37.5144 101.251C38.7222 78.0236 49.0143 73.3989 54.9397 77.7965Z" fill="#3E5DAB"/>
<path d="M44.8744 168.898C35.5114 168.898 27.9238 161.094 27.9238 151.483C27.9238 141.872 35.5114 134.068 44.8744 134.068C54.2375 134.068 61.8248 141.862 61.8248 151.483C61.8248 161.104 54.2375 168.898 44.8744 168.898Z" fill="#6580C7"/>
<path d="M46.2788 165.687C38.8359 165.687 32.7969 159.483 32.7969 151.834C32.7969 144.184 38.8359 137.98 46.2788 137.98C53.7218 137.98 59.7608 144.184 59.7608 151.834C59.7608 159.483 53.7218 165.687 46.2788 165.687Z" fill="#A9C7FF"/>
<path d="M44.2042 134.068C44.2042 134.068 61.6399 132.808 61.7947 152.505C61.8464 158.637 56.5506 165.883 49.8922 168.113C44.1836 170.023 37.4426 167.525 35.0786 165.687" stroke="white" stroke-width="0.598738" stroke-linecap="round" stroke-linejoin="round"/>
<path d="M68.6182 81.9463C61.5366 81.9463 55.7969 76.0518 55.7969 68.7741C55.7969 61.4963 61.5366 55.6018 68.6182 55.6018C75.6999 55.6018 81.4394 61.4963 81.4394 68.7741C81.4394 76.0518 75.6999 81.9463 68.6182 81.9463Z" fill="#6580C7"/>
<path d="M68.6071 78.767C63.2391 78.767 58.8828 74.2868 58.8828 68.7742C58.8828 63.2617 63.2391 58.7815 68.6071 58.7815C73.9751 58.7815 78.3315 63.2617 78.3315 68.7742C78.3315 74.2868 73.9751 78.767 68.6071 78.767Z" fill="#A9C7FF"/>
<path d="M70.9717 55.8291C70.9717 55.8291 82.1412 57.0988 81.336 70.3227C80.8095 78.9941 71.7149 83.6498 65.583 81.8226" stroke="white" stroke-width="0.887785" stroke-linecap="round" stroke-linejoin="round"/>
<path d="M65.5934 54.5903C65.5934 54.5903 58.8111 52.7115 49.5513 56.7582C40.2915 60.8048 31.5788 70.5085 25.9631 82.824C20.3473 95.1497 16.2284 114.722 20.9461 137.123" stroke="#A9C7FF" stroke-width="0.887785" stroke-linecap="round" stroke-linejoin="round"/>
<path d="M113.833 159.979C104.47 161.703 96.5832 161.362 96.2219 159.225C95.8606 157.088 103.149 153.95 112.512 152.226C121.875 150.502 129.761 150.843 130.123 152.98C130.484 155.127 123.196 158.255 113.833 159.979Z" fill="#3E5DAB"/>
<path d="M118.53 125.995H117.105" stroke="white" stroke-width="0.8052" stroke-linecap="round" stroke-linejoin="round"/>
<path d="M120.429 137.712H119.004" stroke="white" stroke-width="0.8052" stroke-linecap="round" stroke-linejoin="round"/>
<path d="M122.557 149.439H120.667" stroke="white" stroke-width="0.8052" stroke-linecap="round" stroke-linejoin="round"/>
<path d="M126.613 153.929C126.613 153.929 123.041 157.15 108.072 159.08" stroke="white" stroke-width="0.8052" stroke-linecap="round" stroke-linejoin="round"/>
<path d="M129.699 164.831H114.73" stroke="white" stroke-width="0.8052" stroke-linecap="round" stroke-linejoin="round"/>
<path d="M88.0248 164.831H84.4634" stroke="white" stroke-width="0.8052" stroke-linecap="round" stroke-linejoin="round"/>
<path d="M71.333 162.146H68.7832C68.7832 162.146 72.4169 156.655 71.6737 148.819" stroke="white" stroke-width="0.8052" stroke-linecap="round" stroke-linejoin="round"/>
<path d="M121.193 131.632C121.193 131.632 118.901 131.033 115.474 131.415" stroke="white" stroke-width="0.887785" stroke-linecap="round" stroke-linejoin="round"/>
<path d="M122.989 144.164C122.989 144.164 119.665 143.936 116.723 144.277" stroke="white" stroke-width="0.887785" stroke-linecap="round" stroke-linejoin="round"/>
</g>
<path d="M25.2604 214.711C25.2088 214.432 25.1778 214.185 25.1675 213.988L25.2604 214.711C26.2204 220.389 34.1382 240.911 79.9211 245.825C137.286 251.988 193.557 183.401 205.718 165.573L226.313 216.507C200.959 269.403 131.216 304.15 71.9723 276.226C36.8739 259.689 27.9031 234.81 27.6244 232.725L25.2604 214.701V214.711Z" fill="#A285E0"/>
<path d="M32.9205 204.12C33.1476 203.821 33.3437 203.573 33.5295 203.366L32.9205 204.12C28.3886 210.2 15.939 235.626 51.9769 275.814C97.1403 326.18 212.304 305.493 240.043 298.215L209.982 362.053C137.204 392.031 42.1906 370.466 16.0216 298.205C0.516288 255.405 16.1661 225.066 17.9004 222.898L32.9205 204.13V204.12Z" fill="#A285E0"/>
<path fill-rule="evenodd" clip-rule="evenodd" d="M174.429 241.118C185.516 275.773 205.956 216.343 213.172 195.376C214.607 191.216 215.515 188.563 215.732 188.47C218.168 187.417 212.625 185.188 203.386 182.369C203.695 181.492 203.86 180.553 203.86 179.572C203.86 174.999 200.196 171.282 195.685 171.282C193.124 171.282 190.833 172.48 189.336 174.348C187.127 166.947 180.344 161.548 172.323 161.548C170.785 161.548 169.299 161.744 167.874 162.116C167.368 162.012 166.852 161.961 166.315 161.961C163.755 161.961 161.464 163.158 159.967 165.027C157.758 157.625 150.975 152.226 142.954 152.226C138.206 152.226 133.88 154.125 130.69 157.202C126.778 151.534 118.396 149.542 110.767 152.835C109.673 153.31 108.64 153.867 107.68 154.507C101.146 141.686 85.2689 134.109 69.5985 140.871C61.2988 144.453 54.4855 151.669 50.7383 159.473C46.8774 155.024 41.0655 152.402 34.7581 152.876C24.4454 153.661 16.5585 162.456 16.6824 172.769C15.9908 172.676 15.2785 172.655 14.5559 172.707C8.94012 173.13 4.69733 178.085 5.08961 183.753C5.48188 189.42 10.3544 193.684 15.9701 193.25C16.8063 193.188 17.6218 193.023 18.3961 192.765C20.1097 194.881 22.1433 196.718 24.4247 198.205C24.6209 205.772 25.5603 212.802 26.6958 215.434C27.532 217.396 28.8946 218.985 30.5876 220.173C28.9875 222.609 33.4574 247.787 34.5723 250.378C35.0678 251.544 35.4807 253.144 35.9143 254.837C37.0911 259.462 38.4331 264.706 42.1701 263.23C42.2114 263.344 42.263 263.457 42.3043 263.571C44.3586 268.371 50.6041 265.821 56.2198 263.395C56.9321 263.086 57.6134 260.804 58.2328 258.698C58.7283 257.005 59.2032 255.426 59.6367 255.044C61.7633 255.746 66.419 255.942 72.5716 256.21C83.8134 256.696 100.072 257.398 115.082 261.733C132.229 266.688 139.682 252.205 144.141 243.534C145.721 240.457 146.929 238.104 148.064 237.619C154.774 234.718 160.576 238.641 165.108 241.696C169.536 244.68 172.757 246.858 174.429 241.087V241.118Z" fill="#9C7CDF"/>
</g>
<path fill-rule="evenodd" clip-rule="evenodd" d="M107.866 115.538C107.866 115.538 114.979 112.843 118.922 123.115C122.866 133.386 128.45 139.198 126.582 146.269C124.713 153.341 113.503 161.403 102.612 152.67C102.612 152.67 93.3727 159.4 83.3284 156.407C73.284 153.413 69.5367 143.173 75.2454 135.884C80.9437 128.596 78.5075 124.085 86.9621 117.189C95.7677 110.015 104.594 112.802 107.887 115.517L107.866 115.538Z" fill="#070C12"/>
<path d="M116.661 168.536C112.47 168.464 109.135 165.016 109.208 160.835C109.28 156.654 112.738 153.341 116.929 153.413C121.121 153.485 124.455 156.933 124.383 161.114C124.31 165.285 120.852 168.609 116.661 168.536Z" fill="#070C12"/>
<path d="M120.14 179.768C115.949 179.696 112.615 176.248 112.687 172.067C112.759 167.886 116.218 164.572 120.409 164.645C124.6 164.717 127.934 168.165 127.862 172.346C127.79 176.516 124.332 179.84 120.14 179.768Z" fill="#070C12"/>
<path d="M121.946 190.535C117.755 190.463 114.421 187.015 114.493 182.834C114.565 178.663 118.023 175.339 122.215 175.412C126.406 175.484 129.74 178.932 129.668 183.113C129.596 187.293 126.137 190.617 121.946 190.535Z" fill="#070C12"/>
<path d="M78.2285 165.378C82.3887 165.904 86.1876 162.972 86.7141 158.833C87.2405 154.693 84.2985 150.905 80.1486 150.368C75.9884 149.841 72.1895 152.773 71.663 156.913C71.1365 161.052 74.0786 164.841 78.2285 165.367V165.378Z" fill="#070C12"/>
<path d="M69.3506 174.947C73.5108 175.474 77.3097 172.542 77.8361 168.402C78.3626 164.263 75.4205 160.474 71.2707 159.937C67.1105 159.411 63.3116 162.343 62.7851 166.482C62.2586 170.622 65.2007 174.41 69.3506 174.937V174.947Z" fill="#070C12"/>
<path d="M63.6626 185.838C67.8228 186.364 71.6217 183.433 72.1481 179.293C72.6746 175.154 69.7325 171.365 65.5827 170.838C61.4225 170.312 57.6236 173.244 57.0971 177.383C56.5706 181.523 59.5127 185.311 63.6626 185.848V185.838Z" fill="#070C12"/>
<path d="M59.5229 197.678C63.6831 198.205 67.482 195.273 68.0085 191.134C68.535 186.994 65.5929 183.206 61.443 182.679C57.2828 182.153 53.4839 185.084 52.9574 189.224C52.431 193.363 55.373 197.152 59.5229 197.678Z" fill="#070C12"/>
<path fill-rule="evenodd" clip-rule="evenodd" d="M59.3989 201.302C59.3989 201.302 53.969 194.54 48.5907 195.892C43.2124 197.245 42.0046 201.302 45.5247 202.922C49.0346 204.543 58.4802 203.728 58.4802 203.728C58.4802 203.728 44.8434 206.835 45.4318 212.864C46.0202 218.882 52.4928 217.364 55.1252 213.442C57.7576 209.519 60.1422 204.904 60.1422 204.904L59.4093 201.312L59.3989 201.302Z" fill="#CE4950"/>
<path fill-rule="evenodd" clip-rule="evenodd" d="M53.711 215.021C54.2478 214.556 54.7227 214.02 55.1253 213.431C57.7577 209.509 60.1423 204.884 60.1423 204.884L59.4094 201.291C59.4094 201.291 56.9215 198.194 53.6388 196.615C52.9678 198.329 51.9974 201.054 51.3574 203.903C54.9188 204.037 58.4906 203.728 58.4906 203.728C58.4906 203.728 54.4749 204.646 50.8928 206.443C50.3664 210.293 50.7896 213.875 53.7214 215.021H53.711Z" fill="#AC373D"/>
<path fill-rule="evenodd" clip-rule="evenodd" d="M130.907 159.246C131.619 159.421 134.107 160.856 135.934 165.182C137.978 170.033 136.997 174.916 137.699 175.03C138.391 175.143 158.408 169.29 158.315 161.517C158.222 153.744 151.439 151.307 146.34 152.866C141.24 154.425 129.596 158.915 130.907 159.246Z" fill="#DA8456"/>
<path fill-rule="evenodd" clip-rule="evenodd" d="M134.334 157.305C130.7 158.74 130.225 159.081 130.907 159.256C131.619 159.431 134.107 160.866 135.934 165.192C137.978 170.044 136.997 174.926 137.699 175.04C137.947 175.081 142.861 173.481 146.278 172.16C146.123 166.596 138.143 159.782 134.334 157.305Z" fill="#B3573F" stroke="#B3573F" stroke-width="0.0516154" stroke-linecap="round" stroke-linejoin="round"/>
<path fill-rule="evenodd" clip-rule="evenodd" d="M93.8779 170.952C96.1284 164.748 98.6472 162.487 111.097 160.608C123.546 158.73 124.011 156.345 128.336 158.946C134.334 162.549 139.021 174.772 134.169 178.746C130.452 181.791 122.999 185.828 110.126 189.719C103.561 190.39 98.5749 190.349 95.9425 186.581C93.4444 182.999 92.9282 173.543 93.8676 170.952H93.8779Z" fill="#0EB891"/>
<path fill-rule="evenodd" clip-rule="evenodd" d="M127.923 158.698C127.923 158.698 131.227 157.398 131.949 157.656C132.661 157.914 136.233 159.545 138.215 165.057C140.197 170.57 139.702 174.833 139.32 175.659C138.938 176.485 135.129 177.889 134.953 177.414C134.778 176.95 136.946 172.593 133.972 166.358C130.999 160.123 127.335 158.977 127.923 158.688V158.698Z" fill="#212C3B"/>
<path fill-rule="evenodd" clip-rule="evenodd" d="M110.354 262.796C111.076 258.471 116.867 216.642 119.231 213.896C121.988 210.706 127.139 208.652 127.48 196.275C127.738 187.046 128.522 183.742 127.325 178.705C124.29 171.726 120.284 170.756 112.511 169.321C106.493 168.216 91.3488 165.636 82.853 165.801C79.9006 165.852 75.9468 166.09 72.9944 169.28C68.7103 173.925 68.8549 177.837 66.8006 184.207C64.7359 190.576 57.2104 231.032 61.3603 231.579C61.8558 231.641 62.9913 231.755 64.6224 231.899C77.6914 230.661 87.4158 260.742 110.364 262.796H110.354Z" fill="#0EB891"/>
<path fill-rule="evenodd" clip-rule="evenodd" d="M76.6584 232.87C76.6584 232.87 68.9574 231.735 69.7626 222.97C70.5678 214.196 70.702 213.122 75.9668 211.46C81.2315 209.798 84.0084 206.711 84.6382 200.373C85.3608 193.167 85.2679 187.304 84.0497 187.211C82.8213 187.118 81.5929 203.883 72.9318 205.38C70.3613 205.824 66.707 204.895 63.992 204.564C61.2357 217.757 59.0782 231.28 61.3596 231.58C62.7842 231.765 69.0193 232.313 76.6687 232.88L76.6584 232.87Z" fill="#1D8D74"/>
<path fill-rule="evenodd" clip-rule="evenodd" d="M115.031 232.88C115.753 228.555 117.188 216.704 119.552 213.968C122.308 210.778 127.841 207.733 127.573 192.971C124.455 185.115 121.844 184.031 120.76 181.523C120.76 181.523 127.439 192.723 125.581 200.135C122.948 208.549 115.774 212.853 100.454 213.793C84.7014 214.753 72.4479 216.879 82.6265 221.184C92.8154 225.489 109.57 219.759 112.749 226.604C114.112 229.535 114.938 233.355 114.7 234.872C114.824 234.346 115.01 233.066 115.031 232.89V232.88Z" fill="#1D8D74"/>
<path fill-rule="evenodd" clip-rule="evenodd" d="M86.3732 177.569C87.6739 171.252 82.4195 164.335 75.885 166.844C69.2162 169.404 64.9322 173.729 60.4623 182.886C55.9614 192.115 53.4219 196.884 54.5781 199.217C55.1252 200.321 59.8842 200.156 63.9928 201.777C68.5556 203.573 72.5403 207.104 73.9442 207.073C76.6076 207.031 78.0425 206.773 81.0465 197.359C82.9666 191.351 85.0312 184.021 86.3629 177.569H86.3732Z" fill="#0EB891"/>
<path fill-rule="evenodd" clip-rule="evenodd" d="M72.6127 210.2C72.2101 210.592 65.2214 209.261 59.265 206.762C53.2982 204.264 52.1627 203.057 53.2156 202.478C54.2686 201.911 60.1011 200.868 64.7878 203.139C69.4745 205.41 73.9444 209.684 72.7159 210.148L72.623 210.2H72.6127Z" fill="#0B1017"/>
<path fill-rule="evenodd" clip-rule="evenodd" d="M71.993 209.674C72.0549 209.178 70.5684 206.546 66.0675 204.45C61.5564 202.355 57.7781 202.045 55.4038 202.107C53.0295 202.159 53.1843 202.84 53.2463 203.067C53.3082 203.294 52.9985 203.449 52.823 202.902C52.6475 202.355 52.8953 202.107 53.1224 201.281C53.3392 200.455 54.0928 199.31 54.2786 199.206C54.4747 199.113 58.3046 197.751 65.4894 200.197C72.6743 202.644 74.8731 206.164 74.9041 207.031C74.9351 207.888 73.3247 210.056 72.5195 210.252C71.7143 210.448 71.3839 209.963 71.6214 209.88C71.8588 209.798 71.962 209.911 71.9827 209.684L71.993 209.674Z" fill="#212C3B"/>
<path fill-rule="evenodd" clip-rule="evenodd" d="M69.8048 208.012C69.9803 207.527 68.7002 205.958 64.7258 204.192C60.7618 202.427 54.857 202.025 54.1034 202.799C53.3498 203.583 49.6851 211.635 48.436 217.065C47.0321 223.125 48.6218 227.326 54.5679 229.226C60.514 231.125 63.8277 227.615 65.2729 221.535C66.3878 216.859 67.7195 213.875 69.7944 208.012H69.8048Z" fill="#DA8456"/>
<path fill-rule="evenodd" clip-rule="evenodd" d="M67.8533 213.359C68.4211 211.8 69.0715 210.087 69.8044 208.012C69.9799 207.527 68.6998 205.958 64.7254 204.192C60.7614 202.427 54.8566 202.025 54.103 202.799C53.8036 203.108 53.0397 204.595 52.1416 206.598C53.37 205.978 55.1043 205.648 57.5509 206.02C63.8789 206.969 66.6558 210.737 67.843 213.349L67.8533 213.359Z" fill="#B3573F"/>
<path fill-rule="evenodd" clip-rule="evenodd" d="M111.727 185.59C112.707 186.994 116.568 182.246 115.071 174.101C113.574 165.966 109.538 160.165 100.381 159.359C91.2146 158.554 86.2802 160.288 84.8246 166.751C83.3691 173.203 83.5239 179.624 89.0674 184.341C94.6109 189.069 96.2729 189.854 96.3142 187.201C96.3865 183.154 98.3065 181.048 100.237 182.648C102.167 184.248 103.169 184.124 104.036 182.71C104.903 181.296 105.543 180.553 106.895 180.377C108.237 180.212 110.467 183.753 111.737 185.59H111.727Z" fill="#212C3B"/>
<path fill-rule="evenodd" clip-rule="evenodd" d="M69.2571 207.165C69.2777 206.979 69.1435 206.804 68.9577 206.783C68.7719 206.763 68.5964 206.897 68.5758 207.083L67.275 217.53C67.2544 217.715 67.3886 217.881 67.5744 217.912C67.7602 217.932 67.9357 217.798 67.9564 217.612L69.2571 207.165Z" fill="#B3573F"/>
<path fill-rule="evenodd" clip-rule="evenodd" d="M106.131 155.447C106.131 155.447 105.275 165.698 105.667 167.36C106.059 169.032 107.566 172.8 106.844 175.412C106.111 178.034 102.9 182.277 102.374 182.246C101.847 182.204 96.4175 179.272 93.6406 173.223C90.8637 167.174 92.6805 165.563 92.5876 159.617C92.536 156.077 92.567 152.814 91.6172 150.936C90.9772 149.656 89.821 148.19 87.6016 147.044C87.6016 147.044 88.19 144.329 90.7295 144.659C93.0831 144.959 100.846 144.701 103.189 145.733C107.608 147.684 106.224 152.825 106.131 155.447Z" fill="#DA8456"/>
<path fill-rule="evenodd" clip-rule="evenodd" d="M92.3911 144.762C93.0931 149.717 103.519 168.598 105.212 172.118C107.009 175.866 104.531 179.84 104.531 179.84C105.491 178.457 106.482 176.733 106.854 175.411C107.587 172.789 106.069 169.021 105.677 167.359C105.285 165.687 106.141 155.447 106.141 155.447C106.234 152.814 107.618 147.673 103.199 145.733C101.269 144.876 95.6222 144.907 92.3911 144.773V144.762Z" fill="#B3573F"/>
<path fill-rule="evenodd" clip-rule="evenodd" d="M85.7536 136.38C84.4425 135.947 82.2231 135.771 80.6127 137.299C75.7195 141.944 83.7612 148.758 88.2208 146.827C88.8298 146.559 89.2944 146.208 89.6247 145.795C91.9887 150.636 97.2431 155.705 104.696 155.54C114.947 155.313 120.367 146.889 120.067 140.107C119.83 134.522 119.025 131.146 116.031 124.818C113.223 118.893 107.68 120.245 107.68 120.245C99.4523 117.221 94.6624 123.414 91.5345 129.598C89.0156 134.574 86.7755 136.081 85.7536 136.38Z" fill="#DA8456"/>
<path fill-rule="evenodd" clip-rule="evenodd" d="M85.7534 136.38C85.7534 136.38 87.8697 136.999 88.9742 139.012C88.9742 139.012 91.3795 137.402 92.3499 132.777C93.1034 129.185 95.1165 123.786 98.5334 120.906C95.4984 122.774 93.2583 126.191 91.5343 129.598C89.0155 134.574 86.7754 136.081 85.7534 136.38Z" fill="#B3573F"/>
<path d="M117.993 138.816C117.797 138.816 117.631 138.661 117.631 138.465C117.631 138.269 117.786 138.104 117.982 138.104C118.178 138.104 118.344 138.259 118.344 138.444C118.344 138.641 118.189 138.806 117.993 138.806V138.816Z" fill="#B3573F" stroke="#B3573F" stroke-width="0.0516154" stroke-linecap="round" stroke-linejoin="round"/>
<path d="M115.742 140.767C115.546 140.767 115.381 140.613 115.381 140.416C115.381 140.22 115.536 140.055 115.732 140.055C115.928 140.055 116.093 140.21 116.093 140.396C116.093 140.592 115.938 140.757 115.742 140.757V140.767Z" fill="#B3573F" stroke="#B3573F" stroke-width="0.0516154" stroke-linecap="round" stroke-linejoin="round"/>
<path d="M114.287 138.383C114.059 138.383 113.863 138.207 113.853 137.97C113.853 137.743 114.029 137.547 114.266 137.536C114.493 137.536 114.689 137.712 114.7 137.949C114.7 138.176 114.524 138.373 114.287 138.373V138.383Z" fill="#B3573F" stroke="#B3573F" stroke-width="0.0516154" stroke-linecap="round" stroke-linejoin="round"/>
<path d="M98.5854 138.311C98.3995 138.311 98.2447 138.166 98.2344 137.98C98.2344 137.795 98.3789 137.64 98.5647 137.629C98.7505 137.629 98.9054 137.774 98.9157 137.96C98.9157 138.146 98.7712 138.3 98.5854 138.311Z" fill="#B3573F" stroke="#B3573F" stroke-width="0.0516154" stroke-linecap="round" stroke-linejoin="round"/>
<path d="M96.3248 140.633C96.1184 140.633 95.9532 140.478 95.9429 140.272C95.9429 140.065 96.0977 139.9 96.3042 139.9C96.5106 139.9 96.6758 140.055 96.6861 140.261C96.6861 140.468 96.5313 140.633 96.3248 140.633Z" fill="#B3573F" stroke="#B3573F" stroke-width="0.0516154" stroke-linecap="round" stroke-linejoin="round"/>
<path d="M94.4661 137.836C94.2493 137.836 94.0738 137.67 94.0635 137.454C94.0635 137.237 94.2286 137.061 94.4454 137.051C94.6622 137.051 94.8377 137.216 94.848 137.433C94.848 137.65 94.6829 137.825 94.4661 137.836Z" fill="#B3573F" stroke="#B3573F" stroke-width="0.0516154" stroke-linecap="round" stroke-linejoin="round"/>
<path fill-rule="evenodd" clip-rule="evenodd" d="M87.7982 142.832C87.7775 143.018 87.922 143.183 88.1079 143.203C88.2937 143.224 88.4588 143.08 88.4795 142.894C88.4795 142.894 88.779 139.467 85.3311 138.032C83.9168 137.443 82.8637 137.546 82.1308 137.949C81.0056 138.579 80.603 139.972 80.7991 140.953C80.8301 141.139 81.016 141.263 81.2018 141.221C81.3876 141.19 81.5114 141.005 81.4701 140.819C81.3256 140.065 81.6146 139.012 82.4715 138.527C83.0702 138.197 83.9168 138.166 85.073 138.641C88.046 139.879 87.8085 142.822 87.8085 142.822L87.7982 142.832Z" fill="#B3573F"/>
<path fill-rule="evenodd" clip-rule="evenodd" d="M116.465 128.421C116.651 128.194 116.104 127.688 114.793 126.831C113.482 125.974 110.674 125.262 109.105 126.883C107.536 128.503 108.196 128.885 108.929 128.441C109.662 127.998 111.768 126.903 113.606 127.492C115.443 128.08 116.135 128.854 116.476 128.421H116.465Z" fill="#121D29"/>
<path fill-rule="evenodd" clip-rule="evenodd" d="M108.558 135.368C108.558 135.368 108.847 139.57 109.022 139.528C109.198 139.487 111.211 137.856 111.211 137.577C111.211 137.299 108.599 135.162 108.558 135.368Z" fill="#FFC086"/>
<path fill-rule="evenodd" clip-rule="evenodd" d="M112.666 143.451C112.305 142.584 110.591 143.049 108.671 143.565C106.988 144.019 104.088 144.174 102.116 143.1C99.8448 141.861 97.5324 142.574 98.3789 144.628C99.2254 146.682 102.374 149.738 106.348 149.212C110.312 148.685 113.451 145.33 112.666 143.441V143.451Z" fill="#121D29"/>
<path fill-rule="evenodd" clip-rule="evenodd" d="M109.6 148.055C109.342 147.209 108.475 145.072 106.121 143.905C104.759 143.936 103.282 143.73 102.126 143.1C99.8551 141.861 97.5427 142.574 98.3892 144.628C99.2357 146.682 102.384 149.738 106.359 149.212C107.587 149.046 108.692 148.623 109.61 148.055H109.6Z" fill="#CE4950"/>
<path fill-rule="evenodd" clip-rule="evenodd" d="M110.467 143.111C109.961 143.214 109.362 143.379 108.671 143.565C106.988 144.019 104.087 144.174 102.116 143.1C101.765 142.914 101.424 142.77 101.114 142.677C101.372 143.802 101.744 144.422 103.003 145.02C104.903 145.929 107.907 145.567 109.022 145.01C109.724 144.659 110.198 143.74 110.457 143.111H110.467Z" fill="#E0FFFD"/>
<path fill-rule="evenodd" clip-rule="evenodd" d="M102.807 127.874C102.693 127.213 101.971 126.005 100.123 125.314C97.8107 124.446 94.1253 126.057 94.817 126.418C95.5086 126.79 97.2326 125.499 99.4727 126.81C101.3 127.884 102.983 128.854 102.817 127.874H102.807Z" fill="#121D29"/>
<path fill-rule="evenodd" clip-rule="evenodd" d="M115.185 134.119C115.185 134.119 114.596 135.75 111.799 135.544C108.867 135.327 108.32 133.81 108.609 132.849C108.898 131.889 110.147 130.32 112.965 130.702C115.783 131.074 115.174 134.13 115.174 134.13L115.185 134.119Z" fill="#E0FFFD"/>
<path fill-rule="evenodd" clip-rule="evenodd" d="M117.6 131.394C117.6 131.394 116.403 132.994 115.164 133.551C115.164 133.551 114.617 130.723 111.479 131.084C109.61 131.291 108.537 133.066 108.537 133.066C108.537 133.066 108.351 133.262 108.113 133.004C107.886 132.757 109.135 130.578 111.107 130.104C114.194 129.247 114.875 130.733 115.753 131.136C116.805 131.621 117.611 131.394 117.611 131.394H117.6Z" fill="#121D29"/>
<path fill-rule="evenodd" clip-rule="evenodd" d="M114.813 130.919C114.039 130.207 112.139 130.32 112.459 132.199C112.728 133.779 114.059 134.697 115.061 134.099C116.062 133.5 116.021 132.024 114.813 130.919Z" fill="#121D29"/>
<path fill-rule="evenodd" clip-rule="evenodd" d="M101.176 134.264C101.176 134.264 100.32 136.287 97.0575 135.936C94.2084 135.626 93.6096 133.851 94.1464 132.767C94.8174 131.425 96.5414 130.744 98.6989 130.94C100.856 131.136 101.362 133.19 101.176 134.274V134.264Z" fill="#E0FFFD"/>
<path fill-rule="evenodd" clip-rule="evenodd" d="M100.227 130.909C99.1846 130.269 97.3781 131.477 98.1007 133.056C98.7304 134.429 99.8557 135.048 101.033 134.181C102.158 133.345 101.838 131.9 100.238 130.898L100.227 130.909Z" fill="#121D29"/>
<path fill-rule="evenodd" clip-rule="evenodd" d="M101.176 133.789C101.176 133.789 102.642 133.273 103.643 131.384C103.643 131.384 102.508 132.024 101.558 131.384C100.619 130.744 99.8443 129.567 97.6662 129.876C95.488 130.186 93.9808 132.065 93.6092 133.108C93.6092 133.108 93.3408 133.582 93.6711 133.644C93.9292 133.686 94.1667 133.2 94.3834 132.963C95.168 132.117 96.0042 131.26 97.821 131.218C100.866 131.146 101.176 133.779 101.176 133.779V133.789Z" fill="#121D29"/>
<path fill-rule="evenodd" clip-rule="evenodd" d="M167.244 121.339C167.244 121.339 166.48 125.221 162.619 124.281C158.758 123.332 157.716 120.08 158.634 118.015C159.543 115.951 159.12 112.926 159.563 107.579C160.007 102.231 164.508 95.6554 165.995 95.1599C167.481 94.6747 167.337 97.2761 166.356 99.382C165.375 101.488 165.241 104.296 166.356 104.378C167.471 104.461 170.764 103.501 175.12 100.063C179.477 96.6258 182.584 92.094 183.368 93.2089C184.153 94.3237 182.439 98.8556 177.546 102.5C177.546 102.5 178.847 102.933 184.359 97.8542C187.136 95.2941 187.529 95.9032 187.838 96.5535C188.148 97.2039 187.384 98.8143 187.384 98.8143C187.384 98.8143 188.602 99.6608 186.847 102.861C186.847 102.861 187.219 103.78 186.166 105.266C185.113 106.753 179.797 112.327 175.791 114.433C171.786 116.539 168.483 116.105 167.233 121.339H167.244Z" fill="#DA8456"/>
<path fill-rule="evenodd" clip-rule="evenodd" d="M186.363 102.675C186.476 102.933 186.404 103.346 186.311 103.749C186.146 104.451 185.847 105.122 185.847 105.122C185.775 105.297 185.847 105.504 186.022 105.576C186.198 105.648 186.404 105.576 186.476 105.4C186.476 105.4 186.92 104.399 187.055 103.522C187.127 103.088 187.117 102.675 186.982 102.396C186.9 102.211 186.766 102.087 186.6 102.035C186.415 101.973 186.167 101.983 185.857 102.107C185.042 102.458 183.617 103.769 181.903 105.689C180.107 107.713 178.012 107.775 178.012 107.775C177.826 107.775 177.671 107.94 177.671 108.126C177.671 108.312 177.836 108.466 178.022 108.466C178.022 108.466 180.396 108.415 182.42 106.144C183.813 104.575 185 103.418 185.805 102.913C185.981 102.799 186.146 102.716 186.27 102.685C186.291 102.685 186.322 102.675 186.342 102.675C186.342 102.675 186.353 102.675 186.363 102.675Z" fill="#B3573F"/>
<path fill-rule="evenodd" clip-rule="evenodd" d="M186.548 102.685C186.455 102.851 186.517 103.067 186.682 103.16C186.847 103.253 187.064 103.191 187.157 103.026C187.157 103.026 187.756 101.952 187.993 100.827C188.169 99.991 188.138 99.1446 187.652 98.5871C187.415 98.3187 187.167 98.2051 186.92 98.1948C186.682 98.1948 186.424 98.2671 186.156 98.4529C185.216 99.0929 183.864 101.158 181.407 103.15C178.207 105.731 177.133 105.731 177.133 105.731C176.937 105.731 176.782 105.875 176.772 106.061C176.772 106.247 176.916 106.412 177.102 106.422C177.102 106.422 178.341 106.515 181.841 103.687C183.957 101.973 185.247 100.218 186.166 99.351C186.331 99.1962 186.476 99.0723 186.62 98.9897C186.734 98.9278 186.827 98.8762 186.92 98.8865C187.002 98.8865 187.074 98.9484 187.157 99.0413C187.508 99.4439 187.477 100.074 187.343 100.683C187.126 101.715 186.579 102.685 186.579 102.685H186.548Z" fill="#B3573F"/>
<path fill-rule="evenodd" clip-rule="evenodd" d="M173.881 108.157C174.036 108.043 174.067 107.826 173.954 107.671C173.84 107.517 173.623 107.486 173.468 107.599C173.468 107.599 172.219 108.487 168.802 108.384C166.934 108.332 165.582 108.539 164.56 109.117C163.517 109.715 162.794 110.696 162.196 112.234C162.123 112.41 162.216 112.616 162.392 112.678C162.567 112.75 162.774 112.658 162.836 112.482C163.352 111.13 163.971 110.242 164.89 109.715C165.829 109.179 167.058 109.013 168.771 109.065C172.508 109.179 173.871 108.146 173.871 108.146L173.881 108.157Z" fill="#B3573F"/>
<path fill-rule="evenodd" clip-rule="evenodd" d="M187.085 98.6494C186.992 98.8145 187.054 99.0313 187.23 99.1139C187.395 99.2068 187.612 99.1449 187.705 98.9694C187.705 98.9694 188.21 98.0197 188.272 97.1732C188.324 96.4815 188.107 95.8518 187.333 95.6454C186.641 95.4595 186.022 95.6866 185.341 96.2338C184.473 96.9254 183.503 98.1539 182.048 99.4339C179.436 101.736 178.032 102.644 176.287 102.82C176.101 102.841 175.957 103.006 175.978 103.202C175.998 103.388 176.163 103.532 176.36 103.512C178.207 103.326 179.725 102.397 182.502 99.9501C183.947 98.6803 184.907 97.4519 185.774 96.7706C186.249 96.3886 186.662 96.1822 187.147 96.3164C187.539 96.4196 187.612 96.7706 187.581 97.1215C187.529 97.8442 187.096 98.6494 187.096 98.6494H187.085Z" fill="#B3573F"/>
<path fill-rule="evenodd" clip-rule="evenodd" d="M167.585 119.873C168.122 117.437 166.594 115.022 164.158 114.464C162.021 113.979 159.894 115.083 159.017 116.993C158.924 117.2 158.841 117.406 158.779 117.633L144.998 154.703C144.771 155.178 144.596 155.674 144.472 156.211C143.584 160.092 146.02 163.974 149.902 164.861C153.783 165.749 157.665 163.313 158.552 159.431L167.585 119.884V119.873Z" fill="#DA8456"/>
<path fill-rule="evenodd" clip-rule="evenodd" d="M131.795 85.993C131.795 85.993 125.116 87.0356 124.228 88.5634C123.351 90.1016 124.972 105.493 135.749 103.635C146.526 101.777 145.907 86.0756 145.907 86.0756L131.795 85.9827V85.993Z" fill="#A3A3B2" stroke="white" stroke-width="0.4026" stroke-linecap="round" stroke-linejoin="round"/>
<path fill-rule="evenodd" clip-rule="evenodd" d="M145.906 86.0758C145.906 86.0758 138.597 87.5004 138.153 88.7392C137.709 89.978 141.622 96.7809 136.058 98.03C130.493 99.2791 125.487 86.7675 129.461 79.4484C133.425 72.1294 142.922 74.5553 145.916 86.0758H145.906Z" fill="#CFCFDC"/>
<path fill-rule="evenodd" clip-rule="evenodd" d="M136.059 98.0401C136.059 98.0401 136.771 97.9368 137.69 97.6994C139.692 97.1832 143.842 96.2232 146.537 94.8296C150.81 92.5998 145.907 86.0859 145.907 86.0859C145.907 86.0859 141.148 87.0666 139.537 87.8099C137.927 88.5532 138.01 88.677 138.288 90.0087C138.577 91.3404 140.879 97.0594 136.059 98.0401Z" fill="white"/>
<path fill-rule="evenodd" clip-rule="evenodd" d="M134.097 74.9163C132.92 75.1021 132.528 75.7318 132.734 76.0415C133.106 76.6093 134.881 74.9679 137.896 76.5577C140.91 78.1474 143.098 81.7399 143.831 88.1298C144.255 91.8049 143.057 96.3367 141.416 99.2375C140.208 101.374 138.587 102.427 138.102 102.634C136.977 103.109 137.039 104.193 138.567 103.893C140.094 103.583 153.153 94.014 176.525 88.7802C199.886 83.5567 206.947 85.2187 209.476 84.8574C212.005 84.4961 212.676 83.8354 213.409 82.2457C214.152 80.6456 217.899 75.9589 215.536 67.6489C213.172 59.3491 207.05 56.4896 205.543 56.0251C204.036 55.5605 202.157 55.6638 200.588 56.3451C198.213 57.3774 185.599 67.9586 168.937 72.5007C152.265 77.0429 135.294 74.7511 134.117 74.937L134.097 74.9163Z" fill="#E9E9E9"/>
<path fill-rule="evenodd" clip-rule="evenodd" d="M166.986 73.2854C166.986 73.2854 166.913 72.7692 167.337 72.3872C167.76 71.995 168.668 71.6853 170.526 70.591C172.385 69.4968 173.293 68.7742 173.933 68.7019C174.563 68.64 178.238 69.7239 180.881 75.639C183.523 81.5541 182.532 87.7893 182.161 88.0267C181.779 88.2641 180.148 88.9558 178.258 90.0191C176.359 91.072 175.11 92.063 174.749 92.0011C174.387 91.9391 174.129 91.7017 174.129 91.7017C174.129 91.7017 177.794 86.7363 173.644 79.2521C169.494 71.7575 166.996 73.2957 166.996 73.2957L166.986 73.2854Z" fill="#FB6C64"/>
<path fill-rule="evenodd" clip-rule="evenodd" d="M169.649 71.4068C169.205 71.3346 168.957 70.9423 169.112 70.519C169.257 70.0958 169.742 69.8067 170.186 69.879C170.186 69.879 176.638 70.8287 179.146 77.9207C181.593 84.8268 180.106 90.2774 180.106 90.2774C179.993 90.7006 179.528 91.0103 179.074 90.9794C178.62 90.9381 178.341 90.5664 178.455 90.1432C178.455 90.1432 179.807 85.0642 177.515 78.602C175.296 72.3256 169.649 71.4171 169.649 71.4171V71.4068Z" fill="#E3353E"/>
<path fill-rule="evenodd" clip-rule="evenodd" d="M167.224 73.6569C167.172 73.6879 167.11 73.7085 167.058 73.7292C166.862 73.7808 166.666 73.7292 166.553 73.5743C166.408 73.3782 166.491 73.0892 166.738 72.924C166.738 72.924 167.544 72.3046 169.02 73.0066C170.186 73.564 171.921 75.0815 174.099 78.9836C178.496 86.8292 174.522 91.9184 174.522 91.9184C174.346 92.1456 174.026 92.2281 173.81 92.1043C173.593 91.9804 173.552 91.7017 173.717 91.4746C173.717 91.4746 177.247 86.7879 173.17 79.5101C171.115 75.8454 169.526 74.3795 168.431 73.8531C167.719 73.5124 167.244 73.6569 167.224 73.6672V73.6569Z" fill="#E3353E"/>
<path fill-rule="evenodd" clip-rule="evenodd" d="M144.317 75.8247C143.894 75.8454 143.563 75.6079 143.584 75.3086C143.594 74.9989 143.956 74.7408 144.368 74.7201C144.368 74.7201 158.614 74.0698 167.905 72.2736C168.318 72.191 168.71 72.3665 168.783 72.6659C168.855 72.9652 168.576 73.2646 168.163 73.3472C158.749 75.164 144.317 75.8247 144.317 75.8247Z" fill="white"/>
<path fill-rule="evenodd" clip-rule="evenodd" d="M198.781 60.1335C198.451 60.3503 197.986 60.3503 197.749 60.1232C197.511 59.8961 197.573 59.5348 197.904 59.3076C197.904 59.3076 199.287 58.3786 200.98 57.7282C202.198 57.2637 203.571 56.9643 204.727 57.1604C205.832 57.3463 207.267 58.0069 208.722 59.4006C210.776 61.3516 212.913 64.7686 214.255 70.312C214.328 70.6114 214.059 70.9418 213.657 71.0347C213.254 71.1276 212.872 70.9624 212.8 70.663C211.52 65.357 209.496 62.0639 207.535 60.1954C206.317 59.0392 205.15 58.4405 204.232 58.2857C203.375 58.1411 202.373 58.4095 201.475 58.7502C199.989 59.318 198.771 60.1335 198.771 60.1335H198.781Z" fill="white"/>
<path fill-rule="evenodd" clip-rule="evenodd" d="M212.986 73.0481C212.986 72.7384 213.337 72.4493 213.739 72.4184C214.142 72.3874 214.472 72.6145 214.462 72.9242V73.2752C214.441 73.5849 214.101 73.8739 213.698 73.9049C213.295 73.9358 212.965 73.7087 212.975 73.399V73.0481H212.986Z" fill="white"/>
<path d="M150.304 325.654C149.757 326.036 149.169 326.356 148.518 326.604C144.224 328.276 139.393 326.201 137.741 321.958C136.089 317.726 138.236 312.925 142.531 311.253C143.088 311.036 143.646 310.882 144.214 310.789C141.664 302.943 145.752 294.323 153.639 291.247C160.328 288.646 167.688 290.813 171.869 296.099C172.53 294.096 174.058 292.372 176.194 291.546C176.638 291.371 177.093 291.247 177.536 291.164C178.6 290.401 179.787 289.75 181.067 289.255C187.756 286.653 195.117 288.821 199.297 294.106C199.958 292.104 201.486 290.38 203.623 289.554C207.391 288.088 211.613 289.915 213.058 293.621C213.502 294.757 213.636 295.944 213.492 297.08C214.947 297.503 216.196 298.556 216.785 300.073C217.765 302.602 216.537 305.452 214.039 306.535C214.07 306.597 214.09 306.659 214.121 306.732C215.205 309.529 213.791 312.688 210.963 313.793C210.312 314.051 209.641 314.164 208.991 314.175C206.833 319.243 202.683 323.486 197.109 325.664C190.43 328.266 183.255 327.285 177.733 323.672C177.196 324.054 176.597 324.374 175.947 324.622C175.462 324.807 174.966 324.952 174.47 325.045C173.025 326.087 171.425 326.975 169.681 327.646C163.002 330.248 155.827 329.267 150.304 325.654Z" fill="#F4EEFF"/>
<path fill-rule="evenodd" clip-rule="evenodd" d="M229.183 195.707C231.093 193.436 229.379 182.586 226.994 180.769C224.61 178.952 214.142 180.253 212.232 182.524L178.321 235.12C176.793 237.495 173.459 237.835 171.477 235.833L154.341 218.521C152.503 216.663 149.458 216.797 147.796 218.82L113.554 260.298C112.057 262.115 109.394 262.435 107.505 261.021L81.9965 241.923C80.3138 240.664 77.9705 240.767 76.4014 242.171L53.5461 262.652C51.1305 264.82 47.2594 263.736 46.258 260.649C43.4089 251.802 38.2989 237.216 35.3878 236.534C34.851 236.411 34.2936 236.163 33.7671 235.936C32.4664 235.368 31.3825 234.893 31.3825 236.534C31.3825 237.381 31.3721 237.969 31.3515 238.496C31.3309 239.415 31.3102 240.158 31.3825 241.737C31.527 245.175 41.4784 264.84 46.2271 274.059C47.5071 276.536 50.7176 277.187 52.8854 275.432L77.0724 255.818C78.6415 254.538 80.8816 254.497 82.5023 255.715L109.642 276.031C111.324 277.29 113.668 277.187 115.237 275.783L150.727 243.967C152.338 242.522 154.743 242.46 156.436 243.812L175.843 259.348C177.795 260.907 180.644 260.546 182.141 258.554L229.203 195.727L229.183 195.707Z" fill="white"/>
<path d="M229.183 195.707L227.83 194.571L227.799 194.613L227.768 194.654L229.183 195.717V195.707ZM212.242 182.524L210.89 181.389L210.818 181.471L210.756 181.564L212.242 182.524ZM225.931 182.173C225.931 182.173 226.106 182.339 226.323 182.72C226.53 183.082 226.746 183.557 226.953 184.145C227.376 185.322 227.727 186.808 227.954 188.336C228.181 189.864 228.284 191.371 228.223 192.579C228.192 193.188 228.119 193.684 228.026 194.055C227.923 194.447 227.83 194.582 227.83 194.571L230.535 196.842C231.02 196.275 231.288 195.562 231.443 194.922C231.608 194.262 231.701 193.518 231.743 192.765C231.825 191.247 231.701 189.503 231.443 187.81C231.185 186.117 230.783 184.403 230.277 182.968C230.019 182.246 229.73 181.564 229.389 180.976C229.059 180.408 228.635 179.809 228.068 179.376L225.931 182.184V182.173ZM213.595 183.66C213.595 183.66 213.77 183.484 214.152 183.278C214.513 183.092 214.978 182.896 215.556 182.71C216.712 182.339 218.158 182.039 219.654 181.853C221.151 181.668 222.617 181.616 223.825 181.709C224.434 181.75 224.929 181.833 225.311 181.926C225.714 182.029 225.89 182.132 225.92 182.163L228.057 179.355C227.5 178.932 226.819 178.674 226.189 178.509C225.539 178.343 224.816 178.24 224.073 178.189C222.586 178.075 220.883 178.147 219.221 178.354C217.559 178.56 215.886 178.891 214.472 179.345C213.76 179.572 213.089 179.84 212.5 180.15C211.933 180.449 211.334 180.852 210.89 181.378L213.595 183.65V183.66ZM179.807 236.08L213.719 183.484L210.746 181.575L176.834 234.171L179.807 236.08ZM170.217 237.071C172.994 239.879 177.66 239.394 179.807 236.07L176.834 234.16C175.915 235.585 173.913 235.791 172.726 234.584L170.217 237.071ZM153.081 219.76L170.217 237.071L172.726 234.584L155.589 217.272L153.081 219.76ZM149.148 219.935C150.149 218.727 151.976 218.645 153.071 219.76L155.579 217.272C153.009 214.67 148.745 214.867 146.422 217.685L149.148 219.935ZM114.906 261.413L149.148 219.935L146.422 217.685L112.181 259.163L114.906 261.413ZM106.441 262.425C109.084 264.407 112.811 263.953 114.916 261.413L112.191 259.163C111.293 260.257 109.693 260.443 108.557 259.596L106.441 262.425ZM80.9329 243.327L106.441 262.425L108.557 259.596L83.0491 240.499L80.9329 243.327ZM77.5779 243.472C78.5173 242.625 79.9212 242.563 80.9329 243.327L83.0491 240.499C80.6954 238.733 77.4127 238.878 75.2139 240.839L77.5675 243.472H77.5779ZM54.7122 263.953L77.5675 243.472L75.2139 240.839L52.3586 261.32L54.7122 263.953ZM44.575 261.176C45.9583 265.46 51.3263 266.998 54.7226 263.953L52.3689 261.32C50.9237 262.621 48.5597 261.981 47.9506 260.092L44.5853 261.176H44.575ZM34.9848 238.238C34.7887 238.197 34.8816 238.135 35.2429 238.558C35.5629 238.919 35.9449 239.466 36.3785 240.22C37.2559 241.717 38.216 243.792 39.207 246.187C41.1787 250.956 43.1504 256.768 44.575 261.176L47.9403 260.092C46.5054 255.653 44.5027 249.738 42.4794 244.834C41.4677 242.388 40.4354 240.137 39.4444 238.434C38.9489 237.588 38.4328 236.813 37.9063 236.215C37.4211 235.668 36.7191 235.007 35.8004 234.79L34.9952 238.228L34.9848 238.238ZM33.0544 237.536C33.5499 237.753 34.2622 238.062 34.9848 238.238L35.79 234.8C35.4391 234.718 35.0261 234.542 34.4687 234.305L33.0544 237.546V237.536ZM33.137 236.524C33.137 236.411 33.137 236.38 33.137 236.39C33.137 236.411 33.106 236.514 33.0131 236.659C32.9099 236.813 32.7551 236.958 32.5589 237.051C32.3731 237.144 32.2183 237.154 32.1357 237.164C32.0634 237.164 32.0324 237.164 32.0634 237.164C32.0944 237.164 32.1563 237.185 32.2492 237.216C32.4557 237.288 32.7034 237.391 33.0441 237.546L34.4584 234.305C34.1487 234.171 33.777 234.006 33.4054 233.882C33.0647 233.768 32.5589 233.613 32.0015 233.634C31.3511 233.655 30.5975 233.923 30.0917 234.656C29.6685 235.265 29.5859 235.977 29.5859 236.524H33.1164H33.137ZM33.1164 238.517C33.1267 237.98 33.1473 237.381 33.1473 236.514H29.6168C29.6168 237.33 29.6065 237.908 29.5859 238.434L33.1164 238.517ZM33.137 241.655C33.0751 240.117 33.0957 239.415 33.1164 238.527L29.5859 238.444C29.5652 239.384 29.5446 240.168 29.6168 241.81L33.1473 241.665L33.137 241.655ZM47.7958 273.244C45.4215 268.639 41.7568 261.434 38.6702 254.961C37.1217 251.72 35.7384 248.685 34.7268 246.259C34.2209 245.041 33.8183 243.998 33.5396 243.172C33.2402 242.285 33.1473 241.81 33.1473 241.655L29.6168 241.799C29.6478 242.501 29.8956 243.4 30.1846 244.287C30.4943 245.227 30.9382 246.362 31.4543 247.611C32.497 250.12 33.9216 253.227 35.47 256.489C38.5773 263.013 42.2729 270.25 44.6472 274.864L47.7855 273.244H47.7958ZM51.7702 274.049C50.4695 275.112 48.5494 274.699 47.7958 273.233L44.6576 274.854C46.4538 278.343 50.9753 279.241 54 276.784L51.7702 274.038V274.049ZM75.9468 254.435L51.7598 274.049L53.9896 276.795L78.1766 257.181L75.9468 254.435ZM83.5549 254.29C81.2838 252.597 78.156 252.649 75.9571 254.435L78.1869 257.181C79.1263 256.417 80.4683 256.386 81.4387 257.119L83.5549 254.29ZM110.684 274.606L83.5446 254.29L81.4284 257.119L108.568 277.435L110.684 274.606ZM114.049 274.462C113.11 275.308 111.706 275.37 110.694 274.606L108.578 277.435C110.942 279.2 114.214 279.055 116.413 277.094L114.06 274.462H114.049ZM149.53 242.646L114.039 274.462L116.393 277.094L151.883 245.278L149.53 242.646ZM157.52 242.419C155.156 240.53 151.78 240.623 149.53 242.646L151.883 245.278C152.843 244.411 154.299 244.37 155.311 245.185L157.52 242.429V242.419ZM176.927 257.955L157.52 242.419L155.311 245.175L174.718 260.711L176.927 257.955ZM180.705 257.47C179.807 258.667 178.094 258.884 176.927 257.945L174.718 260.701C177.443 262.879 181.438 262.373 183.534 259.586L180.705 257.47ZM227.768 194.644L180.705 257.47L183.534 259.586L230.597 196.76L227.768 194.644Z" fill="white"/>
<path d="M237.576 161.589C239.01 160.887 240.693 161.95 240.6 163.509L238.339 201.849C238.247 203.397 236.471 204.275 235.129 203.439L201.827 182.617C200.474 181.771 200.578 179.82 202.013 179.118L237.586 161.599L237.576 161.589Z" fill="white" stroke="white" stroke-width="10.6018" stroke-linecap="round"/>
<path fill-rule="evenodd" clip-rule="evenodd" d="M45.1949 242.315C46.1756 242.243 47.1563 242.129 48.0854 241.933C49.6132 243.11 51.6262 243.833 53.8353 243.833C58.6046 243.833 62.4758 242.274 62.4758 236.359C62.4758 232.23 58.6046 228.885 53.8353 228.885C53.474 228.885 53.1127 228.906 52.7617 228.947C52.0494 222.97 46.9705 218.335 40.8076 218.335C34.6447 218.335 29.5761 222.959 28.8535 228.926C24.4765 229.298 21.0596 232.488 21.0596 236.369C21.0596 240.498 24.9307 243.843 29.7 243.843C31.0213 243.843 32.5285 243.843 33.9324 243.688C34.6654 245.515 36.8539 246.837 39.4346 246.837C42.6142 246.837 45.1949 244.824 45.1949 242.346C45.1949 242.346 45.1949 242.336 45.1949 242.326V242.315Z" fill="#F4EEFF"/>
<g style="mix-blend-mode:multiply">
<path fill-rule="evenodd" clip-rule="evenodd" d="M88.4583 239.456C88.4583 239.456 92.4946 241.964 96.438 242.615C100.381 243.265 102.312 241.903 110.932 247.745C110.932 247.745 112.17 248.674 111.685 249.542C111.2 250.419 108.815 250.791 105.966 248.633C105.966 248.633 112.284 254.631 115.051 258.605C117.807 262.58 115.835 263.746 114.792 263.127C114.792 263.127 116.671 266.151 115.226 266.812C113.781 267.473 112.212 265.759 112.212 265.759C112.212 265.759 111.252 268.144 108.475 266.141C105.698 264.138 104.645 261.258 99.122 257.821C99.122 257.821 100.247 262.652 100.505 265.852C100.753 269.052 98.9465 269.486 98.2239 268.773C97.5013 268.072 97.3981 265.408 96.1593 261.64C94.9309 257.872 93.9398 257.336 91.3178 256.066C88.6854 254.796 85.4336 253.475 83.3071 250.904C81.1805 248.334 78.321 246.961 78.321 246.961C78.321 246.961 73.3969 244.194 78.1455 239.497C82.5432 235.151 88.4583 239.466 88.4583 239.466V239.456Z" fill="#D6ECEF"/>
</g>
<path fill-rule="evenodd" clip-rule="evenodd" d="M86.4864 237.546C86.4864 237.546 90.8221 239.621 94.8171 239.766C98.8121 239.9 100.546 238.217 109.858 243.151C109.858 243.151 111.2 243.957 110.839 244.937C110.477 245.918 108.165 246.641 105.047 244.762C105.047 244.762 112.098 250.182 115.36 253.97C118.622 257.759 116.805 259.255 115.701 258.739C115.701 258.739 117.961 261.65 116.619 262.538C115.277 263.426 113.492 261.847 113.492 261.847C113.492 261.847 112.862 264.479 109.837 262.765C106.813 261.052 105.398 258.182 99.4728 255.333C99.4728 255.333 101.228 260.236 101.888 263.55C102.559 266.864 100.825 267.566 100.01 266.926C99.1941 266.286 98.7502 263.519 97.0262 259.741C95.3126 255.962 94.2597 255.539 91.4931 254.569C88.7265 253.598 85.3199 252.659 82.8733 250.254C80.4267 247.848 77.4124 246.806 77.4124 246.806C77.4124 246.806 72.1683 244.586 76.2562 239.012C80.0448 233.85 86.4761 237.556 86.4761 237.556L86.4864 237.546Z" fill="#DA8456"/>
<path fill-rule="evenodd" clip-rule="evenodd" d="M111.139 244.68C111.139 244.494 111.004 244.329 110.819 244.329C110.633 244.329 110.468 244.463 110.457 244.649C110.457 244.649 110.426 244.979 110.117 245.237C109.869 245.444 109.466 245.609 108.806 245.599C108.011 245.599 106.885 245.351 105.296 244.69C105.12 244.618 104.924 244.69 104.852 244.876C104.78 245.051 104.852 245.248 105.038 245.32C106.741 246.032 107.949 246.28 108.806 246.28C109.755 246.28 110.302 246.001 110.633 245.691C111.118 245.227 111.139 244.68 111.139 244.68Z" fill="#B3573F"/>
<path fill-rule="evenodd" clip-rule="evenodd" d="M115.742 258.389C115.557 258.358 115.381 258.481 115.35 258.667C115.319 258.853 115.443 259.029 115.629 259.06C115.629 259.06 115.98 259.121 116.372 259.049C116.661 258.998 116.961 258.884 117.198 258.657C117.549 258.306 117.776 257.645 117.322 256.427C116.341 253.846 112.243 248.705 103.344 243.503C103.179 243.41 102.973 243.461 102.88 243.627C102.787 243.792 102.839 243.998 103.004 244.091C111.685 249.17 115.732 254.156 116.692 256.675C117.002 257.501 116.971 257.945 116.723 258.182C116.599 258.306 116.424 258.358 116.269 258.389C116 258.44 115.753 258.389 115.753 258.389H115.742Z" fill="#B3573F"/>
<path fill-rule="evenodd" clip-rule="evenodd" d="M103.138 250.915C102.973 250.822 102.766 250.874 102.674 251.028C102.581 251.183 102.632 251.4 102.787 251.493C102.787 251.493 109.559 255.54 113.162 261.94C113.172 262.136 113.162 262.797 112.419 262.952C111.902 263.065 111.469 262.952 110.664 262.466C109.755 261.919 108.444 260.918 106.235 259.235C101.745 255.808 99.587 254.993 99.587 254.993C99.4631 254.941 99.3186 254.972 99.2257 255.065C99.1328 255.158 99.0915 255.292 99.1431 255.416C99.1431 255.416 100.95 260.691 101.466 263.179C101.714 264.356 101.693 265.274 101.476 265.914C101.29 266.451 100.97 266.761 100.526 266.812C100.341 266.833 100.206 266.998 100.217 267.184C100.237 267.37 100.403 267.504 100.588 267.483C101.156 267.432 101.621 267.122 101.93 266.554C102.333 265.832 102.457 264.645 102.126 263.034C101.724 261.104 100.557 257.511 100.041 255.953C100.981 256.438 102.89 257.542 105.822 259.772C108.052 261.475 109.384 262.487 110.302 263.045C111.324 263.664 111.902 263.747 112.553 263.602C114.029 263.272 113.812 261.775 113.812 261.775C113.812 261.733 113.792 261.692 113.771 261.661C110.096 255.075 103.117 250.905 103.117 250.905L103.138 250.915Z" fill="#B3573F"/>
<path fill-rule="evenodd" clip-rule="evenodd" d="M89.2432 238.888C87.0031 237.908 82.3267 234.325 74.5122 227.667C66.6976 221.009 64.6743 217.045 57.4894 216.27C50.3149 215.496 45.7108 221.804 48.0851 227.657C49.6542 231.507 54.9499 235.523 63.1981 240.003C69.7739 243.575 78.0014 247.198 85.1553 250.677C90.5439 253.299 94.4667 253.021 96.6036 249.139C98.7404 245.258 95.2306 241.521 89.2432 238.888Z" fill="#DA8456"/>
<path fill-rule="evenodd" clip-rule="evenodd" d="M58.1085 219.316C57.9227 219.336 57.7782 219.501 57.7988 219.687C57.8195 219.873 57.9847 220.007 58.1705 219.997L64.3746 219.408L79.8799 232.601C80.0244 232.725 80.2412 232.705 80.3651 232.56C80.489 232.416 80.4683 232.199 80.3238 232.085L64.705 218.799C64.6327 218.737 64.5398 218.706 64.4469 218.717L58.1085 219.316Z" fill="#B3573F"/>
<path fill-rule="evenodd" clip-rule="evenodd" d="M32.4969 46.3316C32.4969 46.3316 28.8116 48.7059 31.795 52.0196C35.1809 55.7772 38.0714 51.8648 38.0714 51.8648C38.0714 51.8648 44.2859 53.8984 44.8537 48.964C45.4834 43.534 40.1773 42.5946 38.474 44.1224C38.474 44.1224 37.3385 40.2513 33.7254 42.1714C30.1123 44.0915 32.4969 46.3213 32.4969 46.3213V46.3316Z" fill="#F4EEFF"/>
</g>
</g>
<defs>
<clipPath id="clip0_80_6460">
<rect width="247.754" height="352" fill="white"/>
</clipPath>
<clipPath id="clip1_80_6460">
<rect width="247.754" height="352" fill="white"/>
</clipPath>
</defs>
</svg>
