<svg width="98" height="29" viewBox="0 0 98 29" fill="none" xmlns="http://www.w3.org/2000/svg">
<g clip-path="url(#clip0_23_5871)">
<g clip-path="url(#clip1_23_5871)">
<path d="M23.439 26.0537H14.5175L13.127 22.0974H9.88286L8.49235 26.0537H-0.428589L11.5052 0.429321L23.439 26.0537ZM12.7505 16.3455C12.7505 16.0012 12.6248 15.6967 12.374 15.4331C12.1226 15.1689 11.8329 15.0368 11.5052 15.0368C11.1769 15.0368 10.8871 15.1689 10.6363 15.4331C10.3849 15.6967 10.2593 16.0012 10.2593 16.3455C10.2593 16.6904 10.3849 16.995 10.6363 17.2586C10.8871 17.5227 11.1769 17.6543 11.5052 17.6543C11.8329 17.6543 12.1226 17.5227 12.374 17.2586C12.6248 16.995 12.7505 16.6904 12.7505 16.3455ZM39.7463 18.2634L38.0087 26.0537H24.2213V2.92507H32.9104V18.2634H39.7463ZM57.1251 18.2634L55.3874 26.0537H41.5999V2.92507H50.2897V18.2634H57.1251ZM75.9529 18.2634L73.9833 26.0537H58.9794V2.92507H73.9833L75.9529 10.7159H67.669C67.3212 10.7159 67.1668 11.0569 67.2052 11.3817C67.2444 11.6654 67.3981 11.9584 67.669 11.9584H72.5929V17.0209H67.669C67.3602 17.0209 67.2052 17.3356 67.2052 17.6402C67.2052 17.9447 67.3602 18.2634 67.669 18.2634H75.9529ZM97.2713 28.4278L87.0759 19.9673V26.0537H78.3282V1.52522L88.5824 9.01152V2.92514H97.2715L97.2713 28.4278Z" fill="white"/>
</g>
</g>
<defs>
<clipPath id="clip0_23_5871">
<rect width="97.83" height="28" fill="white" transform="translate(-0.428589 0.428589)"/>
</clipPath>
<clipPath id="clip1_23_5871">
<rect width="97.83" height="27.9985" fill="white" transform="translate(-0.428589 0.429321)"/>
</clipPath>
</defs>
</svg>
